<svg id="Layer_1" xmlns="http://www.w3.org/2000/svg" xmlns:xlink="http://www.w3.org/1999/xlink" viewBox="0 0 215.92 408.2"><defs><style>.cls-1{fill:#a5dde7;}.cls-2{fill:#98d0e3;}.cls-3{fill:#fff;}.cls-10,.cls-3{stroke:#231f20;}.cls-10,.cls-11,.cls-12,.cls-13,.cls-3{stroke-miterlimit:10;}.cls-4{fill:#f7ef8a;}.cls-5{fill:#f3e681;}.cls-6{fill:url(#linear-gradient);}.cls-7{fill:url(#linear-gradient-2);}.cls-8{fill:#76c8e2;}.cls-9{fill:#a0bad3;}.cls-10,.cls-13{fill:none;}.cls-11{fill:#f3cf8e;stroke:#c03c27;}.cls-11,.cls-12{stroke-width:2px;}.cls-12{fill:#f8a41e;}.cls-12,.cls-13{stroke:#f3cf8f;}</style><linearGradient id="linear-gradient" x1="264.05" y1="365.05" x2="262.94" y2="522.44" gradientTransform="matrix(-1, 0, 0, 1, 518.28, 0)" gradientUnits="userSpaceOnUse"><stop offset="0" stop-color="#fcf38c"/><stop offset="0.71" stop-color="#f5845f"/></linearGradient><linearGradient id="linear-gradient-2" x1="236.54" y1="365.05" x2="235.43" y2="522.44" gradientTransform="translate(95.24)" gradientUnits="userSpaceOnUse"><stop offset="0" stop-color="#faf289"/><stop offset="0.64" stop-color="#f5845f"/></linearGradient></defs><path class="cls-1" d="M293,208v62.5c-32.75,1.14-62,4.51-77,6.43V208Z" transform="translate(-216 -143.8)"/><path class="cls-2" d="M370,256.92v16.59c-5.52-.78-11-1.38-16.43-1.85A506.86,506.86,0,0,0,293,270.5V208h26A56.16,56.16,0,0,0,370,256.92Z" transform="translate(-216 -143.8)"/><path class="cls-3" d="M370,208v48.92A56.16,56.16,0,0,1,319,208Z" transform="translate(-216 -143.8)"/><path class="cls-4" d="M293,270.5V283c-32.7.16-61.94-1.92-77-3.17v-2.88C231,275,260.25,271.64,293,270.5Z" transform="translate(-216 -143.8)"/><path class="cls-5" d="M370,273.51v3.66c-5.28.92-10.56,1.68-15.72,2.32A535.22,535.22,0,0,1,293,283V270.5a506.86,506.86,0,0,1,60.57,1.16C359,272.13,364.48,272.73,370,273.51Z" transform="translate(-216 -143.8)"/><path class="cls-6" d="M216,276.93V525.76h77v-243a535.22,535.22,0,0,1-61.28-3.49C226.56,278.61,221.28,277.85,216,276.93Z" transform="translate(-216 -143.8)"/><path class="cls-7" d="M370,276.93V525.76H293v-243a535.22,535.22,0,0,0,61.28-3.49C359.44,278.61,364.72,277.85,370,276.93Z" transform="translate(-216 -143.8)"/><rect class="cls-8" y="382.2" width="77" height="13"/><rect class="cls-9" x="77" y="382.2" width="77" height="13"/><rect class="cls-1" y="395.2" width="77" height="13"/><rect class="cls-2" x="77" y="395.2" width="77" height="13"/><path class="cls-10" d="M370.41,273.57l-.41-.06" transform="translate(-216 -143.8)"/><path class="cls-11" d="M430.92,201a56.16,56.16,0,0,1-56.16,56.16c-1.6,0-3.19-.07-4.76-.2a56.16,56.16,0,1,1,60.92-56Z" transform="translate(-216 -143.8)"/><circle class="cls-12" cx="158.76" cy="57.16" r="53.19"/><line class="cls-13" x1="157.24" y1="60.16" x2="118.8" y2="88.09"/><line class="cls-13" x1="157.18" y1="60.51" x2="158.52" y2="107.16"/><line class="cls-13" x1="119.82" y1="21.21" x2="157.3" y2="59.87"/><line class="cls-13" x1="167.61" y1="6.38" x2="157.18" y2="60.51"/><line class="cls-13" x1="197.47" y1="21.21" x2="157.3" y2="59.87"/><line class="cls-13" x1="157.24" y1="60.16" x2="109.26" y2="57.45"/><line class="cls-13" x1="197.04" y1="95.03" x2="157.18" y2="60.51"/><line class="cls-13" x1="208.26" y1="49.04" x2="157.24" y2="60.16"/></svg>