<svg id="Layer_1" data-name="Layer 1" xmlns="http://www.w3.org/2000/svg" viewBox="0 0 164.66 429.75"><defs><style>.cls-1{fill:#231f20;}.cls-2{fill:#fff;}.cls-2,.cls-3,.cls-4{stroke:#231f20;stroke-miterlimit:10;}.cls-2,.cls-3{stroke-width:2px;}.cls-3,.cls-4{fill:none;}</style></defs><path class="cls-1" d="M312,144a224.21,224.21,0,0,1,5.54,23.86c.28,1.58,2.69.91,2.42-.66a226.72,226.72,0,0,0-5.55-23.86A1.25,1.25,0,0,0,312,144Z" transform="translate(-203.39 -130.98)"/><path class="cls-1" d="M349.79,155.89c-6.09.05-12,2-17.78,3.57a80.24,80.24,0,0,0-8.47,2.43c-2.24.9-4,2.54-4.21,5.05-.14,1.6,2.36,1.59,2.5,0,.2-2.37,3.28-3,5.11-3.49l7.64-2.11c5-1.37,10-2.9,15.21-3a1.25,1.25,0,0,0,0-2.5Z" transform="translate(-203.39 -130.98)"/><path class="cls-1" d="M319.45,165.68c-3.85,4.7-5.51,10.52-6.71,16.37-1.44,7-2.75,14-4.12,21L300.22,246l-4.77,24.41c-.31,1.57,2.1,2.24,2.41.66q8.26-42.21,16.52-84.44c1.29-6.61,2.44-13.78,6.83-19.16,1-1.23-.75-3-1.76-1.76Z" transform="translate(-203.39 -130.98)"/><path class="cls-1" d="M291.12,208.5c-.07,8.32,5.58,14.87,11.06,20.48.57.57,1.45-.31.89-.89-5.25-5.36-10.77-11.62-10.7-19.59a.63.63,0,0,0-1.25,0Z" transform="translate(-203.39 -130.98)"/><path class="cls-1" d="M305.3,234.17c.18-.81,1.29-1.34,1.94-1.75a21.65,21.65,0,0,1,1.93-1.09,23.39,23.39,0,0,1,14.57-2.15c.78.14,1.12-1.07.33-1.21a24.88,24.88,0,0,0-11.12.55,24.53,24.53,0,0,0-5.11,2.1c-1.26.69-3.41,1.66-3.75,3.21-.17.79,1,1.12,1.21.34Z" transform="translate(-203.39 -130.98)"/><path class="cls-1" d="M323.35,221.23a7.39,7.39,0,0,0-7.2,6.38.62.62,0,0,0,.62.63.65.65,0,0,0,.63-.63,6.13,6.13,0,0,1,6-5.13.63.63,0,0,0,0-1.25Z" transform="translate(-203.39 -130.98)"/><path class="cls-1" d="M319.15,228.55A5.44,5.44,0,0,0,321,233a16.26,16.26,0,0,0,2.15,1.51l2.55,1.63c.67.44,1.3-.65.63-1.08L324,233.65a20.74,20.74,0,0,1-2-1.35,4.3,4.3,0,0,1-1.61-3.75c.06-.8-1.19-.79-1.25,0Z" transform="translate(-203.39 -130.98)"/><path class="cls-1" d="M311.07,230.32l5.31,2.22a.62.62,0,0,0,.77-.44.64.64,0,0,0-.43-.77l-5.31-2.22a.62.62,0,0,0-.77.44.64.64,0,0,0,.43.77Z" transform="translate(-203.39 -130.98)"/><path class="cls-1" d="M314,224.23a9.86,9.86,0,0,0-.48,4,.63.63,0,0,0,.62.63.65.65,0,0,0,.63-.63,8.75,8.75,0,0,1,.43-3.63.62.62,0,1,0-1.2-.33Z" transform="translate(-203.39 -130.98)"/><path class="cls-1" d="M323.09,224.62l-1,.85a.63.63,0,0,0-.18.45.62.62,0,0,0,.18.44.6.6,0,0,0,.44.18l.17,0a.74.74,0,0,0,.27-.16l1-.85a.62.62,0,0,0,0-.89.6.6,0,0,0-.44-.18l-.17,0a.63.63,0,0,0-.27.16Z" transform="translate(-203.39 -130.98)"/><path class="cls-1" d="M325.7,231.11a4.19,4.19,0,0,1,.46.16l-.15-.06a4.45,4.45,0,0,1,1,.59l-.13-.1.22.18a.64.64,0,0,0,.89,0,.62.62,0,0,0,.18-.44A.63.63,0,0,0,328,231a5.26,5.26,0,0,0-2-1.1.64.64,0,0,0-.77.44.65.65,0,0,0,.44.77Z" transform="translate(-203.39 -130.98)"/><path class="cls-1" d="M326.56,226.46A4.06,4.06,0,0,1,327,226l.12-.1c.08-.07-.09.07,0,0l.06,0a1.67,1.67,0,0,1,.28-.18,1.91,1.91,0,0,1,.28-.15l.07,0c.11-.05-.11,0,0,0l.15,0a2.94,2.94,0,0,1,.65-.16.62.62,0,0,0,.44-.77.6.6,0,0,0-.29-.37.71.71,0,0,0-.48-.07,4,4,0,0,0-2.54,1.49.65.65,0,0,0-.18.44.62.62,0,0,0,.18.44.6.6,0,0,0,.44.18.57.57,0,0,0,.44-.18Z" transform="translate(-203.39 -130.98)"/><path class="cls-1" d="M297.08,217.47q.51,3.28,1.23,6.52c.18.79,1.38.46,1.21-.33q-.74-3.24-1.23-6.53a.63.63,0,0,0-.77-.43.64.64,0,0,0-.44.77Z" transform="translate(-203.39 -130.98)"/><path class="cls-1" d="M289.14,215.75c1.3.31,2.05,1.62,2.82,2.59a8.67,8.67,0,0,0,3.78,2.76.63.63,0,0,0,.77-.44.65.65,0,0,0-.44-.77,7.83,7.83,0,0,1-3.42-2.68c-.86-1.11-1.74-2.32-3.17-2.67-.79-.18-1.12,1-.34,1.21Z" transform="translate(-203.39 -130.98)"/><path class="cls-1" d="M295.49,209.64a13.46,13.46,0,0,1-1.84,3,2.38,2.38,0,0,1-1.19.58,1.19,1.19,0,0,1-1-.25.65.65,0,0,0-.88,0,.64.64,0,0,0,0,.89,2.83,2.83,0,0,0,3.59-.06c1.17-.87,1.64-2.29,2.38-3.49a.63.63,0,0,0-1.08-.63Z" transform="translate(-203.39 -130.98)"/><path class="cls-1" d="M287.36,206.67a22.12,22.12,0,0,0,3.69,6.47.62.62,0,0,0,.88-.88,20.51,20.51,0,0,1-3.37-5.93.63.63,0,0,0-.77-.43.63.63,0,0,0-.43.77Z" transform="translate(-203.39 -130.98)"/><path class="cls-1" d="M294,205l-.29,2.44a.62.62,0,0,0,.18.44.63.63,0,0,0,.45.18.65.65,0,0,0,.44-.18.72.72,0,0,0,.18-.44l.29-2.44a.66.66,0,0,0-.19-.44.59.59,0,0,0-.44-.18.65.65,0,0,0-.44.18.72.72,0,0,0-.18.44Z" transform="translate(-203.39 -130.98)"/><path class="cls-1" d="M290.73,204.68a3.76,3.76,0,0,0-.23,3.11.7.7,0,0,0,.29.37.62.62,0,0,0,.91-.7,4.64,4.64,0,0,1-.17-.64c0-.07,0,0,0,0a.28.28,0,0,1,0-.09s0-.08,0-.13v-.33a.76.76,0,0,0,0-.15c0-.07,0-.06,0,0s0-.06,0-.09,0-.2.07-.3.06-.19.1-.29,0-.05,0,0a.3.3,0,0,0,0-.08l.08-.16a.63.63,0,0,0-.22-.85.65.65,0,0,0-.86.22Z" transform="translate(-203.39 -130.98)"/><path class="cls-1" d="M298.38,212.09a8.67,8.67,0,0,0-2.56,3.26.65.65,0,0,0,.22.85.63.63,0,0,0,.86-.22,8.93,8.93,0,0,1,.45-.87c.09-.15.19-.29.28-.43l.14-.19.07-.11c.08-.09,0,.05,0,0a9.27,9.27,0,0,1,1.4-1.4.62.62,0,0,0,0-.88.64.64,0,0,0-.88,0Z" transform="translate(-203.39 -130.98)"/><path class="cls-1" d="M300.37,201.77a92.47,92.47,0,0,0,6.79,15.09c-.18-.31.18-.93,0-1.25a92.47,92.47,0,0,1-6.79-15.09c.13.37-.13.88,0,1.25Z" transform="translate(-203.39 -130.98)"/><path class="cls-1" d="M319.38,202.63a70.76,70.76,0,0,1-5.59,8.22,13.83,13.83,0,0,1-3.14,2.92c-1.15.75-2.5,1.22-3.38,2.33-.21.26.2,1,0,1.25.85-1.08,2.16-1.55,3.29-2.27a13.86,13.86,0,0,0,3.23-3,70.76,70.76,0,0,0,5.59-8.22c.19-.31-.18-.95,0-1.25Z" transform="translate(-203.39 -130.98)"/><path class="cls-1" d="M304.36,194.79q2.19,5.4,4.06,10.93c-.12-.37.13-.87,0-1.25q-1.86-5.52-4.06-10.93c.14.35-.15.88,0,1.25Z" transform="translate(-203.39 -130.98)"/><path class="cls-1" d="M318.66,192.15a5.2,5.2,0,0,1-1.17,2c-.55.69-1.12,1.35-1.71,2q-1.74,1.92-3.68,3.68c-.06.05,0,.53,0,.62s.07.57,0,.63q1.93-1.75,3.68-3.68c.57-.64,1.13-1.29,1.67-2a5.39,5.39,0,0,0,1.21-2.11c.09-.4-.09-.86,0-1.25Z" transform="translate(-203.39 -130.98)"/><path class="cls-1" d="M307,182.21a64.18,64.18,0,0,0,5,14.45c-.16-.33.17-.9,0-1.25A64.18,64.18,0,0,1,307,181c.09.4-.09.85,0,1.25Z" transform="translate(-203.39 -130.98)"/><path class="cls-1" d="M323.89,177.68l-6,5.06c-1.64,1.4-3.37,2.87-5.56,3.24-.08,0,.06,1.24,0,1.25,2.19-.37,3.92-1.84,5.56-3.24l6-5.06c.06-.06,0-.54,0-.63s-.07-.57,0-.62Z" transform="translate(-203.39 -130.98)"/><path class="cls-1" d="M306.64,167.06A68,68,0,0,0,314,181.78c-.19-.28.2-.95,0-1.25a68,68,0,0,1-7.36-14.72c.13.37-.13.88,0,1.25Z" transform="translate(-203.39 -130.98)"/><path class="cls-1" d="M309.43,161.29c3.77,3.3,3.63,8.86,6.42,12.78-.19-.27.2-1,0-1.25-2.79-3.92-2.65-9.48-6.42-12.78.2.18-.22,1.06,0,1.25Z" transform="translate(-203.39 -130.98)"/><path class="cls-1" d="M307.82,150.78c.59,2.45,2.57,4.12,4.4,5.68a36.05,36.05,0,0,1,5.82,6.21,2.23,2.23,0,0,1,0-.63c0-.13.07-.51,0-.62a36.05,36.05,0,0,0-5.82-6.21c-1.83-1.56-3.81-3.23-4.4-5.68.09.39-.1.86,0,1.25Z" transform="translate(-203.39 -130.98)"/><path class="cls-1" d="M323.43,142a41.73,41.73,0,0,1-5.83,20c-.19.32.18.95,0,1.25a41.94,41.94,0,0,0,5.84-20.05c0-.37,0-.91,0-1.2Z" transform="translate(-203.39 -130.98)"/><path class="cls-1" d="M318.89,140a141.83,141.83,0,0,1-3.53,15.5c-.11.39.11.87,0,1.25a141.83,141.83,0,0,0,3.53-15.5c.07-.41-.07-.85,0-1.25Z" transform="translate(-203.39 -130.98)"/><path class="cls-1" d="M304.76,137.08a15.06,15.06,0,0,0,2.37,9.31,14,14,0,0,0,8.25,6.36c-.1,0,.11-1.22,0-1.25a13.64,13.64,0,0,1-7.16-4.79,16.39,16.39,0,0,1-2.28-3.93,17.73,17.73,0,0,1-.74-2.16,6.51,6.51,0,0,1-.44-2.29c.05-.41-.05-.84,0-1.25Z" transform="translate(-203.39 -130.98)"/><path class="cls-1" d="M308.92,135.14a27.11,27.11,0,0,0,2,6.47,15.15,15.15,0,0,0,3.67,5.42,2.6,2.6,0,0,1,0-.62c0-.1.07-.56,0-.63a15.15,15.15,0,0,1-3.67-5.42,27.11,27.11,0,0,1-2-6.47c.07.4-.07.84,0,1.25Z" transform="translate(-203.39 -130.98)"/><path class="cls-1" d="M315.6,134.66a18.48,18.48,0,0,1-2.09,11.81c-.17.33.17.93,0,1.25a22.54,22.54,0,0,0,2.09-14.31c.07.4-.07.84,0,1.25Z" transform="translate(-203.39 -130.98)"/><path class="cls-1" d="M312.92,132.45l-.84,5.13c-.07.41.06.85,0,1.25l.84-5.13c.07-.4-.06-.84,0-1.25Z" transform="translate(-203.39 -130.98)"/><path class="cls-1" d="M306,132.71l2.51,3.25a1,1,0,0,1,0-.18v-.88a.59.59,0,0,0,0-.19L306,131.46a1.07,1.07,0,0,1,0,.18c0,.15,0,.3,0,.44s0,.3,0,.45,0,.15,0,.18Z" transform="translate(-203.39 -130.98)"/><path class="cls-1" d="M305.5,137.73a10.83,10.83,0,0,0,3.11,4.3,1.07,1.07,0,0,1,0-.18c0-.15,0-.29,0-.44s0-.3,0-.44,0-.17,0-.19a10.83,10.83,0,0,1-3.11-4.3,1.09,1.09,0,0,1,0,.19v.88a.53.53,0,0,0,0,.18Z" transform="translate(-203.39 -130.98)"/><path class="cls-1" d="M302.31,145.52a10.68,10.68,0,0,1,4,1.08,3.2,3.2,0,0,1,0-.62v-.45a1.08,1.08,0,0,0,0-.18,10.68,10.68,0,0,0-4-1.08s0,1.25,0,1.25Z" transform="translate(-203.39 -130.98)"/><path class="cls-1" d="M305.48,154c1.07,1.71,3,2.46,4.85,3.1,0,0,0-.57,0-.62a2.62,2.62,0,0,0,0-.63c-1.8-.64-3.78-1.39-4.85-3.1a1.2,1.2,0,0,1,0,.19v.88s0,.15,0,.18Z" transform="translate(-203.39 -130.98)"/><path class="cls-1" d="M312.44,151.87a11.74,11.74,0,0,0,.43,4.25,1.2,1.2,0,0,1,0-.19v-.88a1.08,1.08,0,0,0,0-.18,8.14,8.14,0,0,1-.32-1.27c0-.21-.06-.41-.08-.62l0-.38v-.16c0-.06,0,1.09,0,.63,0-.26,0-.51,0-.77s0-.25,0-.37v-.06Z" transform="translate(-203.39 -130.98)"/><path class="cls-1" d="M309.08,145.57l0,2.64v.86s0,.12,0,.06a2.81,2.81,0,0,0,0-.29l0-2.64v-.85s0-.12,0-.07a2.8,2.8,0,0,0,0,.29Z" transform="translate(-203.39 -130.98)"/><path class="cls-1" d="M309.19,141.8a29,29,0,0,0-1.81,4.07.56.56,0,0,0,0,.18v.88a1.21,1.21,0,0,1,0,.19,29,29,0,0,1,1.81-4.07.56.56,0,0,0,0-.18V142a1.21,1.21,0,0,1,0-.19Z" transform="translate(-203.39 -130.98)"/><path class="cls-1" d="M307.23,136.48a13,13,0,0,1-1,4,.57.57,0,0,0,0,.18v.89s0,.14,0,.18a13,13,0,0,0,1-4c0-.41,0-.83,0-1.25Z" transform="translate(-203.39 -130.98)"/><path class="cls-1" d="M309.31,131a21.78,21.78,0,0,1-1.83,2.74,1.07,1.07,0,0,0,0,.18v.89s0,.16,0,.18a21.78,21.78,0,0,0,1.83-2.74.57.57,0,0,0,0-.18v-.89a1.15,1.15,0,0,1,0-.18Z" transform="translate(-203.39 -130.98)"/><path class="cls-1" d="M311.4,135.74a39.6,39.6,0,0,0-.82,5.31c0,.41,0,.83,0,1.25a39.6,39.6,0,0,1,.82-5.31,3.21,3.21,0,0,0,0-.62,2.66,2.66,0,0,1,0-.63Z" transform="translate(-203.39 -130.98)"/><path class="cls-1" d="M321,145.88a10.72,10.72,0,0,0,1.69,5.46s0-.19,0-.18v-.89s0-.15,0-.18a10.77,10.77,0,0,1-1.69-5.42c0,.3,0,.83,0,1.21Z" transform="translate(-203.39 -130.98)"/><path class="cls-1" d="M325.26,144.22a7.24,7.24,0,0,1-2.67,4.42s0,.19,0,.18v.88a1.34,1.34,0,0,1,0,.19,7.24,7.24,0,0,0,2.67-4.42,3.21,3.21,0,0,0,0-.62,4.42,4.42,0,0,1,0-.63Z" transform="translate(-203.39 -130.98)"/><path class="cls-1" d="M324.5,151.6a21.84,21.84,0,0,1-3.7,3.68s0,.2,0,.18v.88a1.34,1.34,0,0,1,0,.19,21.84,21.84,0,0,0,3.7-3.68,1.07,1.07,0,0,0,0-.18v-.89s0-.16,0-.18Z" transform="translate(-203.39 -130.98)"/><path class="cls-1" d="M319.35,150.86a45,45,0,0,0-.15,4.79c0,1,.12,2.28,1.13,2.78a4.5,4.5,0,0,1,0-.63c0-.06.05-.59,0-.62a2.26,2.26,0,0,1-1.08-1.88c0-.21,0-.42-.05-.63,0,.14,0,.13,0,0s0-.21,0-.32,0-.25,0-.37c0-.62.07-1.24.12-1.85,0-.42,0-.84,0-1.25Z" transform="translate(-203.39 -130.98)"/><path class="cls-1" d="M329.83,152.93a51.19,51.19,0,0,0-3.37,5.15,9.53,9.53,0,0,0-.91,2.76,14,14,0,0,0-.07,2.51c0-.3,0-.83,0-1.21,0,1.2,0,.25.07,0a6.38,6.38,0,0,1,.12-.63,8.58,8.58,0,0,1,.34-1.09,13,13,0,0,1,1-2.12c.85-1.41,1.89-2.69,2.78-4.07.07-.11,0-.49,0-.63s-.08-.51,0-.62Z" transform="translate(-203.39 -130.98)"/><path class="cls-1" d="M330.48,163.16c.5,1.29,1.86,1.87,3.07,2.32a24.83,24.83,0,0,0,4.79,1.25s.07-1.24,0-1.25a24.83,24.83,0,0,1-4.79-1.25c-1.21-.45-2.57-1-3.07-2.32a2.15,2.15,0,0,1,0,.62,2.22,2.22,0,0,0,0,.63Z" transform="translate(-203.39 -130.98)"/><path class="cls-1" d="M334.73,159.06a5.83,5.83,0,0,1-.25-1.08c-.13-1.06-.1.92,0,0,0-.2.05-.4.08-.6a8.8,8.8,0,0,1,.64-2,21,21,0,0,1,2.42-3.74c.08-.1,0-.51,0-.63s-.08-.53,0-.62a16,16,0,0,0-2.87,4.94,9.19,9.19,0,0,0-.3,2.45,7.8,7.8,0,0,0,.3,2.54c-.12-.38.13-.88,0-1.25Z" transform="translate(-203.39 -130.98)"/><path class="cls-1" d="M338.7,160.91a45.34,45.34,0,0,0,14.23,3s0-1.25,0-1.25a45.34,45.34,0,0,1-14.23-3c.13.05-.15,1.19,0,1.25Z" transform="translate(-203.39 -130.98)"/><path class="cls-1" d="M341.32,158.9a48,48,0,0,1,1.81-8.22c.12-.38-.12-.87,0-1.25a48,48,0,0,0-1.81,8.22c-.06.41.05.84,0,1.25Z" transform="translate(-203.39 -130.98)"/><path class="cls-1" d="M347.4,157.76c.53-1.44.43-3,.89-4.45a3.59,3.59,0,0,1,1.19-1.81,6.55,6.55,0,0,1,2.5-1.11c.1,0-.09-1.23,0-1.25a6.81,6.81,0,0,0-2.45,1.07,3.68,3.68,0,0,0-1.24,1.85c-.46,1.45-.36,3-.89,4.45a2.15,2.15,0,0,0,0,.62,2.22,2.22,0,0,1,0,.63Z" transform="translate(-203.39 -130.98)"/><path class="cls-1" d="M350.4,157.46c2.79,1.64,5.71,3.32,9,3.53,0,0,0-1.25,0-1.25-3.3-.21-6.22-1.89-9-3.53a3.3,3.3,0,0,1,0,.63c0,.07-.06.58,0,.62Z" transform="translate(-203.39 -130.98)"/><path class="cls-1" d="M349.7,157.37c.65-1.28,1.27-2.59,2-3.83a7.51,7.51,0,0,1,2.48-2.74,2.53,2.53,0,0,0,0-.62,2.68,2.68,0,0,1,0-.63,7.51,7.51,0,0,0-2.48,2.74c-.73,1.24-1.35,2.55-2,3.83a1.9,1.9,0,0,0,0,.63v.44s0,.15,0,.18Z" transform="translate(-203.39 -130.98)"/><path class="cls-1" d="M350.9,139.38a60.7,60.7,0,0,0-5.11,15.34,45.85,45.85,0,0,0-.88,6.9c0,1.12-.21,2.91,1.09,3.33-.11,0,.13-1.21,0-1.25-1.73-.56-.87-3.43-.7-4.7a60.2,60.2,0,0,1,1.19-6.24,60.91,60.91,0,0,1,4.41-12.13c.17-.34-.16-.92,0-1.25Z" transform="translate(-203.39 -130.98)"/><path class="cls-1" d="M345,157.85c5.53,7.38,14.42,11,23.06,13.33-.1,0,.11-1.22,0-1.25-8.64-2.36-17.53-6-23.06-13.33.19.26-.21,1,0,1.25Z" transform="translate(-203.39 -130.98)"/><path class="cls-1" d="M343,156.19a24,24,0,0,1-1.31-9.53,26.87,26.87,0,0,1,2.05-8.32c.16-.36-.14-.9,0-1.25a29.44,29.44,0,0,0-.74,20.35c-.13-.37.12-.87,0-1.25Z" transform="translate(-203.39 -130.98)"/><path class="cls-1" d="M337.83,156.33a38.3,38.3,0,0,1-1.17-18.59c.07-.41-.08-.85,0-1.25a44.06,44.06,0,0,0,1.17,21.09c-.12-.38.12-.87,0-1.25Z" transform="translate(-203.39 -130.98)"/><path class="cls-1" d="M334.4,160c4.74,5.31,11.55,7.93,18.06,10.37-.13-.05.14-1.2,0-1.25-6.51-2.44-13.32-5.06-18.06-10.37.2.22-.21,1,0,1.25Z" transform="translate(-203.39 -130.98)"/><path class="cls-1" d="M334,161.23a26.56,26.56,0,0,1-3.69-19.76c.08-.4-.09-.85,0-1.25A30.13,30.13,0,0,0,334,162.48c-.18-.29.19-.95,0-1.25Z" transform="translate(-203.39 -130.98)"/><path class="cls-1" d="M327.57,161.85a25.14,25.14,0,0,0,9.85,7.86,39.68,39.68,0,0,0,5.88,2.22c1.78.53,4.91,1.74,5.95-.55.16-.35-.15-.91,0-1.25-1,2.25-4,1.12-5.79.6a40.67,40.67,0,0,1-6-2.27,25.14,25.14,0,0,1-9.85-7.86c.2.27-.2,1,0,1.25Z" transform="translate(-203.39 -130.98)"/><path class="cls-1" d="M325.89,161a30.9,30.9,0,0,1,2.59-13.7c.15-.35-.15-.9,0-1.25a35.84,35.84,0,0,0-2.6,16.15c0-.29,0-.82,0-1.2Z" transform="translate(-203.39 -130.98)"/><path class="cls-1" d="M332.73,160.16A66.05,66.05,0,0,1,335.36,144c.11-.38-.11-.86,0-1.25a66.37,66.37,0,0,0-2.63,16.2c0,.37,0,.91,0,1.2Z" transform="translate(-203.39 -130.98)"/><path class="cls-1" d="M337.18,158.69c.12-3.33,0-6.83.65-10.1.54-2.59,1.91-5.12,4.41-6.23.17-.08-.14-1.19,0-1.25-2.6,1.16-4,3.83-4.47,6.51a66.34,66.34,0,0,0-.59,9.86c0,.38,0,.91,0,1.21Z" transform="translate(-203.39 -130.98)"/><path class="cls-1" d="M343,159.85a38,38,0,0,1,6.69-15.55c.2-.28-.2-1,0-1.25A38,38,0,0,0,343,158.6c-.07.41.08.85,0,1.25Z" transform="translate(-203.39 -130.98)"/><path class="cls-1" d="M345.39,161.57l.32-1.17a5.59,5.59,0,0,1,.29-1c.32-.59,1,0,1.37.3a15.64,15.64,0,0,0,2.87,2.39,33.3,33.3,0,0,0,3.75,1.31,38.34,38.34,0,0,1,4.08,1.85c-.16-.08.17-1.16,0-1.25a41.53,41.53,0,0,0-4-1.81,34.73,34.73,0,0,1-3.87-1.35,14.51,14.51,0,0,1-2.8-2.33c-.31-.26-1.08-.95-1.41-.44a4.42,4.42,0,0,0-.32,1.09l-.32,1.17c-.11.39.11.86,0,1.25Z" transform="translate(-203.39 -130.98)"/><path class="cls-1" d="M341.91,159c1.82,4.53,3.81,9.32,7.84,12.35-.2-.15.2-1.1,0-1.25-4-3-6-7.82-7.84-12.35.15.35-.14.89,0,1.25Z" transform="translate(-203.39 -130.98)"/><path class="cls-1" d="M329.66,161.34a17.14,17.14,0,0,0,3.29,4q1.82,1.83,3.8,3.5a57.65,57.65,0,0,0,8.45,5.91c-.18-.1.18-1.14,0-1.25a57.65,57.65,0,0,1-8.45-5.91q-1.94-1.62-3.7-3.4a17.62,17.62,0,0,1-3.39-4.07c.17.33-.17.92,0,1.25Z" transform="translate(-203.39 -130.98)"/><path class="cls-1" d="M322.6,165.84a13.44,13.44,0,0,0,6.55,6.56,25,25,0,0,0,5.09,1.35c2,.39,4,.74,6,1.07-.06,0,.08-1.24,0-1.25-1.93-.32-3.86-.66-5.79-1a26,26,0,0,1-5.26-1.38,13.44,13.44,0,0,1-6.55-6.56c.17.33-.17.92,0,1.25Z" transform="translate(-203.39 -130.98)"/><path class="cls-1" d="M329.33,160.77a5.14,5.14,0,0,0-.22,2.53,18.16,18.16,0,0,0,.81,3.72,10.23,10.23,0,0,0,3.81,5.69,2.6,2.6,0,0,1,0-.62c0-.09.06-.58,0-.63a9.4,9.4,0,0,1-3.31-4.28,19,19,0,0,1-.9-3c-.12-.51-.23-1-.32-1.55a2.25,2.25,0,0,1-.06-.36c0-.35,0-.24,0,.36.1-.13.12-.49.21-.66.16-.34-.17-.92,0-1.25Z" transform="translate(-203.39 -130.98)"/><path class="cls-1" d="M327.52,162.89l-.77,3.56a24.08,24.08,0,0,0-.6,3.46c-.12,1.74-.12,3.68,1.08,5.07-.06-.07,0-.52,0-.62s.08-.53,0-.63a4.51,4.51,0,0,1-1-1.93,4.37,4.37,0,0,1-.09-.5c0-.16,0-.32,0-.48,0,.47,0,.54,0,.2s.11-1,.2-1.44c.35-1.82.77-3.63,1.16-5.44.08-.4-.09-.86,0-1.25Z" transform="translate(-203.39 -130.98)"/><path class="cls-1" d="M316.67,176.34l5.13-1a10.58,10.58,0,0,0,4.45-1.65,32,32,0,0,0,6.49-6.8c.2-.27-.2-1,0-1.25a32,32,0,0,1-6.49,6.8,10.19,10.19,0,0,1-4.3,1.62l-5.28,1c-.09,0,.07,1.23,0,1.25Z" transform="translate(-203.39 -130.98)"/><path class="cls-1" d="M319.42,170.9c4.76-.69,10.21-1.6,13.07-6,.19-.29-.19-1,0-1.25-2.86,4.35-8.31,5.26-13.07,6-.07,0,.05,1.24,0,1.25Z" transform="translate(-203.39 -130.98)"/><path class="cls-1" d="M315.68,159.59c-3.6-2.15-9.33-.93-11.77-5,.18.3-.18.94,0,1.25,2.44,4,8.17,2.82,11.77,5-.17-.1.19-1.13,0-1.25Z" transform="translate(-203.39 -130.98)"/><path class="cls-1" d="M303.27,147.85a32.34,32.34,0,0,0,10.63,10.6,9.86,9.86,0,0,0,5.06,1.84s0-1.25,0-1.25a9.7,9.7,0,0,1-4.95-1.77,32.41,32.41,0,0,1-10.74-10.67c.19.3-.19.94,0,1.25Z" transform="translate(-203.39 -130.98)"/><path class="cls-1" d="M304,138.34c3.57,5.41,7.44,11.14,13.5,14-.15-.07.17-1.17,0-1.25-6.06-2.82-9.93-8.55-13.5-14,.19.29-.2,1,0,1.25Z" transform="translate(-203.39 -130.98)"/><path class="cls-1" d="M318.91,160.84a16.38,16.38,0,0,1-21.28,2.46c.18.12-.2,1.11,0,1.25a16.38,16.38,0,0,0,21.28-2.46c.22-.23-.2-1,0-1.25Z" transform="translate(-203.39 -130.98)"/><path class="cls-1" d="M317.79,170.08a26.39,26.39,0,0,1-5.35-4.83c-1.84-1.91-3.65-3.85-5.44-5.8.06.06,0,.52,0,.62s-.07.54,0,.63c1.79,2,3.6,3.89,5.44,5.8a26.39,26.39,0,0,0,5.35,4.83,3.2,3.2,0,0,1,0-.62c0-.07.06-.59,0-.63Z" transform="translate(-203.39 -130.98)"/><path class="cls-1" d="M312.31,179.85a46.22,46.22,0,0,1-3.57-3.43c-.79-.85-2.15-2.08-1.82-3.34.42-1.56,1.06-3.06,1.49-4.62s.82-3.26,1.11-4.91c.07-.4-.07-.85,0-1.25a50,50,0,0,1-1.44,6c-.49,1.62-1.31,3.22-1.33,4.94a4.77,4.77,0,0,0,1.17,3.48,40,40,0,0,0,4.39,4.34c-.2-.18.21-1.07,0-1.25Z" transform="translate(-203.39 -130.98)"/><path class="cls-1" d="M314.23,172.57A48.92,48.92,0,0,1,309.08,162c.13.37-.13.87,0,1.25a48.92,48.92,0,0,0,5.15,10.62,2.23,2.23,0,0,1,0-.63c0-.14.07-.5,0-.62Z" transform="translate(-203.39 -130.98)"/><path class="cls-1" d="M312.38,180.28l-3.74-.66a15.88,15.88,0,0,1-3.48-.89c-2.29-1-4.46-2.3-6.64-3.46.16.09-.18,1.15,0,1.25,2.18,1.16,4.35,2.5,6.64,3.46a15.88,15.88,0,0,0,3.48.89l3.74.66c-.06,0,.08-1.23,0-1.25Z" transform="translate(-203.39 -130.98)"/><path class="cls-1" d="M315.82,177.57a14.48,14.48,0,0,0,5.55,5.35c1.12.67,2.28,1.26,3.46,1.82.37.18,1.4.87,1.55.16a3.41,3.41,0,0,0,0-1.35c.11.38-.11.86,0,1.25l0,.1v-1.25c-.14.68-1.05.08-1.41-.09l-1.46-.71a30.56,30.56,0,0,1-3-1.74,13.76,13.76,0,0,1-4.65-4.79c.07.12,0,.48,0,.62a1.89,1.89,0,0,0,0,.63Z" transform="translate(-203.39 -130.98)"/><path class="cls-1" d="M316.09,173a36.82,36.82,0,0,0,14.06,9.33c-.13-.05.14-1.2,0-1.25a36.82,36.82,0,0,1-14.06-9.33c.21.22-.21,1,0,1.25Z" transform="translate(-203.39 -130.98)"/><path class="cls-1" d="M315.91,177.41a21.08,21.08,0,0,1-10.83-13.93c.09.39-.09.85,0,1.25a21.08,21.08,0,0,0,10.83,13.93c-.16-.08.18-1.15,0-1.25Z" transform="translate(-203.39 -130.98)"/><path class="cls-1" d="M304.43,180c1.92,8.17,4.2,17.16,11.52,22.21-.19-.13.2-1.12,0-1.25-7.32-5.05-9.6-14-11.52-22.21.1.4-.09.86,0,1.25Z" transform="translate(-203.39 -130.98)"/><path class="cls-1" d="M302.64,182.06a62.41,62.41,0,0,0,3.53,12c1.37,3.38,3,6.89,6,9.11-.19-.14.2-1.1,0-1.25-3-2.22-4.63-5.73-6-9.11a62.41,62.41,0,0,1-3.53-12c.08.4-.08.84,0,1.25Z" transform="translate(-203.39 -130.98)"/><path class="cls-1" d="M300.65,189.24c-.81,3.57.7,7.21,1.88,10.52q1.19,3.31,2.58,6.57c.81,1.9,1.64,3.89,3.41,5.09-.18-.12.2-1.11,0-1.25a8.54,8.54,0,0,1-2.84-3.78c-.74-1.63-1.41-3.28-2.05-4.94s-1.28-3.43-1.86-5.17-1.55-3.89-1.12-5.79c.1-.39-.09-.85,0-1.25Z" transform="translate(-203.39 -130.98)"/><path class="cls-1" d="M297.88,198.25c.48,3.87,1.85,7.66,2.89,11.4.89,3.21,1.61,7.46,4.55,9.49-.19-.13.2-1.11,0-1.25-2.94-2-3.66-6.28-4.55-9.49-1-3.74-2.41-7.53-2.89-11.4.06.41-.05.84,0,1.25Z" transform="translate(-203.39 -130.98)"/><path class="cls-1" d="M311,186.51a8.09,8.09,0,0,1-6.29.27,18.53,18.53,0,0,1-5.29-3.71c.06.05,0,.54,0,.63s-.07.55,0,.62a18.53,18.53,0,0,0,5.29,3.71,8.09,8.09,0,0,0,6.29-.27c.15-.06-.14-1.19,0-1.25Z" transform="translate(-203.39 -130.98)"/><path class="cls-1" d="M312.06,192.09a9.82,9.82,0,0,1-3.21,1.85,6.39,6.39,0,0,1-4-.5,17.42,17.42,0,0,1-6.59-3.64c.2.2-.21,1,0,1.25a17.42,17.42,0,0,0,6.59,3.64,6.6,6.6,0,0,0,3.86.53,9.48,9.48,0,0,0,3.31-1.88c.21-.16-.19-1.11,0-1.25Z" transform="translate(-203.39 -130.98)"/><path class="cls-1" d="M315.07,196.51A24.53,24.53,0,0,0,326,198.06s0-1.25,0-1.25a24.53,24.53,0,0,1-10.93-1.55c.13.05-.15,1.19,0,1.25Z" transform="translate(-203.39 -130.98)"/><path class="cls-1" d="M309.45,187.73a12.36,12.36,0,0,0,7.46,1.25,12.09,12.09,0,0,0,3.61-1.11c1-.5,2.13-1.18,2.34-2.38.07-.4-.07-.85,0-1.25a3.62,3.62,0,0,1-2.25,2.33,12.33,12.33,0,0,1-11.16-.09c.16.09-.18,1.16,0,1.25Z" transform="translate(-203.39 -130.98)"/><path class="cls-1" d="M320.06,178.26a43.93,43.93,0,0,1-12,18.94c-.22.2.2,1.06,0,1.25a43.93,43.93,0,0,0,12-18.94c.12-.38-.12-.87,0-1.25Z" transform="translate(-203.39 -130.98)"/><path class="cls-1" d="M320.75,182.92c-.89,2.13-.5,4.47-1.14,6.66a12.91,12.91,0,0,1-3.45,5.31c-3.56,3.61-7.57,6.84-11.35,10.21-.21.19.2,1.07,0,1.25,3.78-3.37,7.79-6.6,11.35-10.21a13.11,13.11,0,0,0,3.4-5.14c.7-2.23.28-4.65,1.19-6.83.15-.36-.15-.9,0-1.25Z" transform="translate(-203.39 -130.98)"/><path class="cls-1" d="M321.55,192.09c-.67,8-9.13,11.76-13.43,17.58-.2.28.19,1,0,1.25,4.3-5.82,12.76-9.58,13.43-17.58,0-.42,0-.84,0-1.25Z" transform="translate(-203.39 -130.98)"/><path class="cls-1" d="M315.82,203.28c-.36,2.31-1,4.83-2.75,6.5s-4.55,1.76-6.32,3.5c-.06.07,0,.53,0,.63s.07.55,0,.62c1.77-1.74,4.52-1.78,6.32-3.5s2.39-4.18,2.75-6.5c.06-.41-.07-.85,0-1.25Z" transform="translate(-203.39 -130.98)"/><path class="cls-1" d="M304.14,206.1c-1.7,2.76-1.92,6-1.82,9.12.1,3.5,1.17,7.4,4.64,9-.15-.07.16-1.18,0-1.25-5.59-2.53-5.63-11-2.82-15.59.19-.3-.18-.95,0-1.25Z" transform="translate(-203.39 -130.98)"/><path class="cls-1" d="M297.25,206.49a9.15,9.15,0,0,0-.18,3.34c.19,2.15.69,4.3,1.09,6.41a17.46,17.46,0,0,0,1.78,5.8,9.56,9.56,0,0,0,3.93,3.66c-.16-.08.18-1.16,0-1.25a10.09,10.09,0,0,1-5.17-6.85c-.4-1.63-.68-3.3-1-4.95s-.93-3.4-.48-4.91c.11-.39-.11-.87,0-1.25Z" transform="translate(-203.39 -130.98)"/><path class="cls-1" d="M291.16,209.65a3.76,3.76,0,0,0,.54,3.19,14,14,0,0,0,3.12,3.21,33.64,33.64,0,0,0,9,4.39c-.12-.05.14-1.2,0-1.25a38.72,38.72,0,0,1-7.73-3.51,17.15,17.15,0,0,1-2.88-2.29c-.84-.84-2.07-2.07-2.13-3.32v1.23a.93.93,0,0,1,.09-.4c.12-.39-.12-.88,0-1.25Z" transform="translate(-203.39 -130.98)"/><path class="cls-1" d="M292.6,209.31c3.3,3.62,7.66,5.95,12,8-.15-.07.17-1.17,0-1.25-4.37-2.07-8.73-4.4-12-8,.06.06,0,.52,0,.62s-.07.54,0,.63Z" transform="translate(-203.39 -130.98)"/><path class="cls-1" d="M295.86,209.2a97.9,97.9,0,0,1,1.71,18.08c0,.38,0,1.21,0,.33A106.22,106.22,0,0,0,295.86,208c.08.4-.07.84,0,1.25Z" transform="translate(-203.39 -130.98)"/><path class="cls-1" d="M286.18,215.83c5.22,6.65,13.39,9.78,19.83,15-.2-.16.21-1.08,0-1.25-6.44-5.21-14.61-8.34-19.83-15,.2.26-.2,1,0,1.25Z" transform="translate(-203.39 -130.98)"/><path class="cls-1" d="M306.11,224.58a4.49,4.49,0,0,1,2.81-2.31c1.72-.74,3.46-1.45,5.18-2.18l10.19-4.27c.15-.06-.14-1.19,0-1.25l-10.19,4.27-5,2.11c-1.2.5-2.5,1.07-3,2.38-.13.37.14.89,0,1.25Z" transform="translate(-203.39 -130.98)"/><path class="cls-1" d="M308.64,217.92c.58-1.07,2.5-1.51,3.58-1.78a16.84,16.84,0,0,1,4.06-.44,40,40,0,0,1,9.19,1.55c-.09,0,.1-1.23,0-1.25a40,40,0,0,0-9.19-1.55,16.84,16.84,0,0,0-4.06.44c-1.09.27-3,.71-3.58,1.78-.18.33.17.93,0,1.25Z" transform="translate(-203.39 -130.98)"/><path class="cls-1" d="M318.41,210a21.65,21.65,0,0,1-2.38,5.28,24.4,24.4,0,0,1-3.87,4.13l-9.64,8.7c-.21.19.2,1.07,0,1.25l9.64-8.7a24.4,24.4,0,0,0,3.79-4,21.46,21.46,0,0,0,2.46-5.4c.13-.37-.13-.88,0-1.25Z" transform="translate(-203.39 -130.98)"/><path class="cls-1" d="M319.06,218.11a17.64,17.64,0,0,0-9.48,6.39,17.22,17.22,0,0,0-2.69,5.08,8.75,8.75,0,0,0-.44,4.8c-.11-.39.1-.86,0-1.25-.16-.59-.17.3-.06-.31,0-.25.09-.49.15-.73.09-.39.2-.77.32-1.16a16.45,16.45,0,0,1,.94-2.31,17.91,17.91,0,0,1,2.82-4.12,17.52,17.52,0,0,1,8.44-5.14c.12,0-.09-1.23,0-1.25Z" transform="translate(-203.39 -130.98)"/><path class="cls-1" d="M311.29,223.71c3.49,3.34,8.48,4.67,12.9,6.3-.12,0,.15-1.19,0-1.25-4.42-1.63-9.41-3-12.9-6.3a2.68,2.68,0,0,1,0,.63c0,.1-.07.55,0,.62Z" transform="translate(-203.39 -130.98)"/><path class="cls-1" d="M318.16,219.16a16.53,16.53,0,0,0-1.86,6.8,20.48,20.48,0,0,0,.52,6.24c-.1-.39.11-.86,0-1.25a13,13,0,0,1-.34-5.47,16.28,16.28,0,0,1,1.68-5.07c.18-.33-.17-.92,0-1.25Z" transform="translate(-203.39 -130.98)"/><path class="cls-1" d="M311.76,228.88c3.8,2.91,8.51,4.15,13.18,4.79,0,0,.07-1.24,0-1.25-4.67-.64-9.38-1.88-13.18-4.79.2.15-.2,1.09,0,1.25Z" transform="translate(-203.39 -130.98)"/><path class="cls-1" d="M324.51,220.31q-3.36,6.08-7.07,11.95c-.06.1,0,1.25,0,1.25a.72.72,0,0,0,.68-.34c.07-.1,0-.49,0-.62s-.08-.52,0-.63a.71.71,0,0,1-.68.34v1.25q3.71-5.88,7.07-11.95c.18-.32-.17-.93,0-1.25Z" transform="translate(-203.39 -130.98)"/><path class="cls-1" d="M329.45,220.64a53.94,53.94,0,0,0-6.86,6.48,10.63,10.63,0,0,0-2.07,3.86,11.75,11.75,0,0,0-.24,3.4c0-.3,0-.83,0-1.2v.54l0-.41c0-.15,0-.29.07-.44a8.36,8.36,0,0,1,.23-1,10,10,0,0,1,.74-1.72,14.48,14.48,0,0,1,2.26-3c1.82-1.91,3.85-3.61,5.84-5.33.07,0,0-.53,0-.62s-.07-.57,0-.63Z" transform="translate(-203.39 -130.98)"/><path class="cls-1" d="M321.64,230.44a18.86,18.86,0,0,0,10,5.22c-.07,0,.08-1.24,0-1.25a18.86,18.86,0,0,1-10-5.22c.06.06,0,.53,0,.62s-.08.55,0,.63Z" transform="translate(-203.39 -130.98)"/><path class="cls-1" d="M326.16,217.32l-4.6,4.1c-1.36,1.21-2.83,2.31-3.39,4.12a15.45,15.45,0,0,0-.68,4.22,6.06,6.06,0,0,0,.76,3.74c-.19-.27.2-1,0-1.25a4,4,0,0,1-.69-1.72c0-.15,0-.91-.05-.28s0-.17,0-.3c0-.35.09-.69.15-1a8.37,8.37,0,0,1,1.36-3.86,25.59,25.59,0,0,1,3.27-3.06l3.83-3.42c.21-.19-.2-1.07,0-1.25Z" transform="translate(-203.39 -130.98)"/><path class="cls-1" d="M303.73,226.59a10.61,10.61,0,0,1-2.51,2,7.16,7.16,0,0,1-3.09.66c-2.45.09-4.91,0-7.37.06,0,0,0,1.25,0,1.25,2.46,0,4.92,0,7.37-.06a7.16,7.16,0,0,0,3.09-.66,10.87,10.87,0,0,0,2.51-2c.22-.21-.2-1.05,0-1.25Z" transform="translate(-203.39 -130.98)"/><path class="cls-1" d="M304.52,231.11c-.95,1.66-3.11,1.18-4.64.93l-5.87-1c.06,0-.08,1.24,0,1.25l5.87,1c1.53.25,3.69.73,4.64-.93.07-.12,0-.48,0-.62a1.9,1.9,0,0,1,0-.63Z" transform="translate(-203.39 -130.98)"/><path class="cls-1" d="M302,222.05c-1.37.39-2.73.83-4.07,1.33a21.88,21.88,0,0,0-3.72,1.61,4.63,4.63,0,0,0-2.23,2.84,9.82,9.82,0,0,0,0,1.33c0,.52.25,1.08.88,1,.06,0,0-1.24,0-1.25a.81.81,0,0,1-.87-.84v1.16c.21-2,2.29-3.13,3.93-3.81a55.06,55.06,0,0,1,6.1-2.13c.12,0-.1-1.22,0-1.25Z" transform="translate(-203.39 -130.98)"/><path class="cls-1" d="M303.21,235.14c2,2.9,5.72,3.81,8.94,4.54a48.71,48.71,0,0,0,6,1c1,.1,2,.18,3,.21.68,0,1.45,0,1.81-.65.18-.33-.17-.93,0-1.25-.32.61-1,.66-1.62.66-1,0-2-.1-3-.2a48.07,48.07,0,0,1-6.19-1c-3.22-.73-7-1.64-8.94-4.54.19.28-.2,1,0,1.25Z" transform="translate(-203.39 -130.98)"/><path class="cls-1" d="M312.32,229.4c3.48,4.28,7.2,8.74,12.43,10.91-.14-.06.16-1.19,0-1.25-5.23-2.17-8.95-6.63-12.43-10.91.06.07,0,.51,0,.62s-.07.53,0,.63Z" transform="translate(-203.39 -130.98)"/><path class="cls-1" d="M317.22,229.22a7.17,7.17,0,0,0-1.35,3,16.51,16.51,0,0,0-.5,3.5,21.45,21.45,0,0,0,.55,6.29c-.1-.39.1-.86,0-1.25a14,14,0,0,1-.38-5.62,9.27,9.27,0,0,1,1.68-4.67c.07-.09,0-.51,0-.63s-.07-.54,0-.62Z" transform="translate(-203.39 -130.98)"/><path class="cls-1" d="M309.05,232a16.56,16.56,0,0,0,4.34,6.26c2.09,2.06,4.32,4,6.5,6-.06-.05,0-.54,0-.62s.07-.56,0-.63c-2.18-2-4.41-3.91-6.5-6a16.56,16.56,0,0,1-4.34-6.26c.12.37-.13.87,0,1.25Z" transform="translate(-203.39 -130.98)"/><path class="cls-1" d="M310.63,204.53c3.8-4.61,7.94-9.55,13.8-11.5,3.35-1.12,6.95-1.13,10.44-1.07,3.68,0,7.35.27,11,.61,0,0,.05-1.24,0-1.25-3.66-.34-7.33-.56-11-.61-3.5-.06-7.09-.05-10.44,1.07-5.86,1.94-10,6.9-13.8,11.5-.21.25.2,1,0,1.25Z" transform="translate(-203.39 -130.98)"/><path class="cls-1" d="M343.34,181a31.76,31.76,0,0,0-4,1.68,7.41,7.41,0,0,0-2.88,2.29,8.44,8.44,0,0,0-1.29,3.25,3.66,3.66,0,0,1-.51,1.68.9.9,0,0,1-1.27.2,2.68,2.68,0,0,1,0,.63c0,.09-.07.56,0,.62a.88.88,0,0,0,1.23-.15,3.6,3.6,0,0,0,.55-1.73,8.44,8.44,0,0,1,1.29-3.25,7.41,7.41,0,0,1,2.88-2.29,31.76,31.76,0,0,1,4-1.68c.14-.05-.11-1.21,0-1.25Z" transform="translate(-203.39 -130.98)"/><path class="cls-1" d="M330.15,183.69a11.83,11.83,0,0,0-2.51,5.8,15.28,15.28,0,0,0,.23,5.68c-.1-.39.09-.86,0-1.25a11.13,11.13,0,0,1-.25-1.28c0-.26-.06-.52-.07-.78s0-.22,0-.32v.39a3,3,0,0,0,0-.79c0-.21.05-.42.09-.64a12,12,0,0,1,.25-1.19,11.76,11.76,0,0,1,2.22-4.37c.07-.09,0-.51,0-.63s-.08-.53,0-.62Z" transform="translate(-203.39 -130.98)"/><path class="cls-1" d="M335,180.57a40.31,40.31,0,0,0-2.6,10.08c-.05.41.05.84,0,1.25a40.31,40.31,0,0,1,2.6-10.08c.14-.36-.15-.9,0-1.25Z" transform="translate(-203.39 -130.98)"/><path class="cls-1" d="M330.38,192a21.13,21.13,0,0,0,5.27,4.93c2.21,1.56,4.5,3,6.75,4.49-.19-.12.2-1.12,0-1.25-2.25-1.49-4.54-2.93-6.75-4.49a21.13,21.13,0,0,1-5.27-4.93c.06.09,0,.5,0,.62s-.07.51,0,.63Z" transform="translate(-203.39 -130.98)"/><path class="cls-1" d="M337.58,188.5c.49,4.33,3.74,7.49,7,10.08a2.6,2.6,0,0,1,0-.62c0-.09.07-.57,0-.63-3.22-2.59-6.47-5.75-7-10.08.05.41,0,.83,0,1.25Z" transform="translate(-203.39 -130.98)"/><path class="cls-1" d="M344.82,180.34a16,16,0,0,0-3.46,6.23,19.6,19.6,0,0,0-.62,6.33c0-.29,0-.82,0-1.2,0-.22,0-.25,0-.09,0-.12,0-.24,0-.37,0-.29,0-.59.08-.89s.12-.85.21-1.28a15.32,15.32,0,0,1,.82-2.73,15.78,15.78,0,0,1,2.95-4.75c.08-.08,0-.52,0-.63s-.08-.55,0-.62Z" transform="translate(-203.39 -130.98)"/><path class="cls-1" d="M340,178.85c-5.2,3.27-7.35,9.76-6.13,15.64-.08-.4.09-.85,0-1.25-1-5,1.89-10.47,6.13-13.14.2-.12-.18-1.14,0-1.25Z" transform="translate(-203.39 -130.98)"/><path class="cls-1" d="M330.45,180.29a20.32,20.32,0,0,0-3.84,7.46,13.05,13.05,0,0,0-.49,3.4,6.19,6.19,0,0,0,.57,3.21c-.17-.32.18-.93,0-1.25a7,7,0,0,1-.51-1.52c0-.27,0-.27,0,0,0-.16,0-.33,0-.49s.07-.49.11-.73a19.32,19.32,0,0,1,.89-3.14,20.74,20.74,0,0,1,3.27-5.68c.21-.25-.2-1,0-1.25Z" transform="translate(-203.39 -130.98)"/><path class="cls-1" d="M337.57,178.1a39.91,39.91,0,0,0-6.05,14.08c-.08.4.09.86,0,1.25a39.91,39.91,0,0,1,6.05-14.08c.2-.29-.19-1,0-1.25Z" transform="translate(-203.39 -130.98)"/><path class="cls-1" d="M326.35,192.27A13.66,13.66,0,0,1,339,181s0-1.25,0-1.25A13.66,13.66,0,0,0,326.35,191c-.07.4.07.84,0,1.25Z" transform="translate(-203.39 -130.98)"/><path class="cls-1" d="M329.27,192a23.7,23.7,0,0,1,18.07-6.88s0-1.25,0-1.25a23.7,23.7,0,0,0-18.07,6.88c-.21.21.21,1,0,1.25Z" transform="translate(-203.39 -130.98)"/><path class="cls-1" d="M329.37,189.65a28.3,28.3,0,0,0,10.25,14c.38.27,1.85,1.59,2.11.68a3.31,3.31,0,0,0,0-1.4c.1.38-.11.86,0,1.25l0,.15v-1.25c-.3.86-1.52-.26-1.92-.55q-1.05-.75-2-1.59a29.28,29.28,0,0,1-3.51-3.62,28.57,28.57,0,0,1-4.89-8.92c.12.37-.13.87,0,1.25Z" transform="translate(-203.39 -130.98)"/><path class="cls-1" d="M327.33,193.12a36.31,36.31,0,0,0,5.68,10.4c-.07-.08,0-.51,0-.62s.08-.52,0-.63a36.31,36.31,0,0,1-5.68-10.4c.12.37-.14.88,0,1.25Z" transform="translate(-203.39 -130.98)"/><path class="cls-1" d="M335,190.71a22.6,22.6,0,0,0,4.08,6.08,26.58,26.58,0,0,0,2.61,2.37,5.6,5.6,0,0,1,2.1,2.59c-.11-.38.12-.87,0-1.25a5.41,5.41,0,0,0-2-2.53,26.83,26.83,0,0,1-2.68-2.43,22.6,22.6,0,0,1-4.08-6.08c.16.34-.16.91,0,1.25Z" transform="translate(-203.39 -130.98)"/><path class="cls-1" d="M312.09,185a110.57,110.57,0,0,1-21.24-13,19.89,19.89,0,0,1-4.21-4,14.64,14.64,0,0,1-2.08-4.69c-.95-3.54-1.13-7.26-2.36-10.74.13.37-.13.88,0,1.25,1.23,3.48,1.41,7.2,2.36,10.74a14.89,14.89,0,0,0,2,4.53,19.52,19.52,0,0,0,4.32,4.14,110.57,110.57,0,0,0,21.24,13c-.15-.07.17-1.17,0-1.25Z" transform="translate(-203.39 -130.98)"/><path class="cls-1" d="M291.55,157.08c-1.81,6.79-3.67,14.88.1,21.39-.18-.31.18-.94,0-1.25a16,16,0,0,1-2.06-9.13,54.27,54.27,0,0,1,2-9.76c.1-.39-.11-.86,0-1.25Z" transform="translate(-203.39 -130.98)"/><path class="cls-1" d="M274.25,164.1a23.7,23.7,0,0,0,9.51,10,41.73,41.73,0,0,0,7.11,3.31c1.27.46,2.55.88,3.84,1.27.45.14,2.77,1.17,2.87.26,0-.42-.05-.84,0-1.25-.1.89-2.23-.07-2.67-.2-1.29-.39-2.57-.8-3.84-1.26a42.1,42.1,0,0,1-7.31-3.38,23.76,23.76,0,0,1-9.51-10c.16.34-.17.91,0,1.25Z" transform="translate(-203.39 -130.98)"/><path class="cls-1" d="M282.19,163.56a28.7,28.7,0,0,0,6.93,11,18.66,18.66,0,0,0,5,3.4c1.08.48,4.23,2,5,.33.16-.35-.15-.9,0-1.25-.72,1.67-3.87.15-5-.33a18.66,18.66,0,0,1-5-3.4,28.7,28.7,0,0,1-6.93-11c.14.36-.14.88,0,1.25Z" transform="translate(-203.39 -130.98)"/><path class="cls-1" d="M293.14,161.61c-2.36,1.62-4.88,3.38-6.15,6-1.17,2.46-1.07,5.57-.67,8.21-.06-.4.07-.84,0-1.25a9.73,9.73,0,0,1,.07-4,9,9,0,0,1,1.54-3.24,21.22,21.22,0,0,1,5.21-4.5c.2-.14-.19-1.12,0-1.25Z" transform="translate(-203.39 -130.98)"/><path class="cls-1" d="M290.74,158.79a8.79,8.79,0,0,0-7,3.38c-1.77,2.32-2.19,5.34-2.57,8.14,0,.41.06.85,0,1.25.39-2.81.81-5.81,2.57-8.14a8.77,8.77,0,0,1,7-3.38s0-1.25,0-1.25Z" transform="translate(-203.39 -130.98)"/><path class="cls-1" d="M278.27,162.72c.47,2.75,2.6,4.67,4.81,6.16,2.54,1.71,5.16,3.31,7.74,5-.18-.12.2-1.13,0-1.25-2.58-1.65-5.2-3.25-7.74-5-2.21-1.49-4.34-3.41-4.81-6.16.07.4-.06.84,0,1.25Z" transform="translate(-203.39 -130.98)"/><path class="cls-1" d="M294.43,165.9c-.21,2-.87,4-1.11,6.06a12.18,12.18,0,0,0,.28,5c-.12-.37.13-.87,0-1.25a6.78,6.78,0,0,1-.27-1.12c0-.2-.05-.4-.07-.6s0-.23,0-.34c0,.52,0,.65,0,.4.11-.8.16-1.59.31-2.39.31-1.51.71-3,.87-4.54,0-.41,0-.83,0-1.25Z" transform="translate(-203.39 -130.98)"/><path class="cls-1" d="M297.57,170.1a15.91,15.91,0,0,0-.14,4.87,11.84,11.84,0,0,0,1.79,5v-1.25a1.74,1.74,0,0,1-1.3-.17,3.31,3.31,0,0,1,0,.63c0,.07-.06.59,0,.62a1.74,1.74,0,0,0,1.3.17,7.44,7.44,0,0,0,0-1.25,11.93,11.93,0,0,1-1.57-3.73,15.5,15.5,0,0,1-.29-2.14c0-.55-.06.74,0,.19,0-.23,0-.47.05-.7s.09-.68.16-1-.08-.85,0-1.25Z" transform="translate(-203.39 -130.98)"/><path class="cls-1" d="M279.81,171.76a101.54,101.54,0,0,1,19.78-1.24s0-1.25,0-1.25a101.54,101.54,0,0,0-19.78,1.24c-.07,0,.06,1.24,0,1.25Z" transform="translate(-203.39 -130.98)"/><path class="cls-1" d="M293.31,176.51a57.9,57.9,0,0,1-2.8-14.16c0,.3,0,.83,0,1.21a58.31,58.31,0,0,0,2.8,14.2c-.12-.37.13-.87,0-1.25Z" transform="translate(-203.39 -130.98)"/><path class="cls-1" d="M296.73,173.8a60.2,60.2,0,0,1-3-11.6c.07.41-.06.84,0,1.25a60.2,60.2,0,0,0,3,11.6c-.13-.37.14-.88,0-1.25Z" transform="translate(-203.39 -130.98)"/><path class="cls-1" d="M283.66,175.32c3.58,6.31,10.58,9.34,17.57,9.84,0,0,0-1.25,0-1.25-7-.5-14-3.53-17.57-9.84.18.31-.18.93,0,1.25Z" transform="translate(-203.39 -130.98)"/><path class="cls-1" d="M289.75,176.06a13.87,13.87,0,0,0,4.34,7.5,2.68,2.68,0,0,1,0-.63c0-.09.07-.55,0-.62a13.87,13.87,0,0,1-4.34-7.5c.08.4-.09.85,0,1.25Z" transform="translate(-203.39 -130.98)"/><path class="cls-1" d="M296.47,177.18a39.27,39.27,0,0,0,5.09,10.75,2.16,2.16,0,0,1,0-.62c0-.14.07-.51,0-.63a39.27,39.27,0,0,1-5.09-10.75c.12.38-.11.87,0,1.25Z" transform="translate(-203.39 -130.98)"/><path class="cls-1" d="M256.05,389.78c12.89,3.35,26.79,4.88,39.66.63,3-1,1.74-5.84-1.33-4.82-12.05,4-24.93,2.51-37-.63-3.11-.81-4.44,4-1.33,4.82Z" transform="translate(-203.39 -130.98)"/><path class="cls-1" d="M225.75,215.19C215,243.34,204,272.37,203.41,302.9c-.45,23.72,6.64,47.93,22.22,66.14a66.82,66.82,0,0,0,31.06,20.74c3.08.94,4.4-3.88,1.33-4.82-21-6.39-35.88-24.5-43.38-44.48a98.57,98.57,0,0,1-6.24-33.37c-.21-14.62,2.22-29.11,6-43.2,4.3-16.15,10.24-31.8,16.21-47.39a2.51,2.51,0,0,0-1.74-3.07,2.56,2.56,0,0,0-3.08,1.74Z" transform="translate(-203.39 -130.98)"/><path class="cls-1" d="M322.42,216.52c10.45,27.28,21.25,55.42,22.13,85,.67,22.58-5.55,45.94-20.28,63.47-7.75,9.23-17.71,16.46-29.3,20-3.07.94-1.76,5.77,1.33,4.82,22.38-6.82,38.24-25.71,46.49-47a102.15,102.15,0,0,0,6.78-34.29c.39-15.2-2.05-30.37-5.88-45-4.31-16.47-10.37-32.42-16.45-48.3a2.56,2.56,0,0,0-3.07-1.74,2.51,2.51,0,0,0-1.75,3.07Z" transform="translate(-203.39 -130.98)"/><path class="cls-1" d="M228.16,217.74q36.43-1.38,72.9-1.18,10.32.06,20.65.24c3.22.06,3.22-4.94,0-5q-36.45-.63-72.9.28-10.34.27-20.65.66c-3.2.12-3.22,5.12,0,5Z" transform="translate(-203.39 -130.98)"/><rect class="cls-1" x="68.51" y="259.54" width="12.38" height="163.05"/><polygon class="cls-1" points="74.7 415.43 100.35 429.75 49.05 429.75 74.7 415.43"/><path class="cls-1" d="M256.46,388.33c1.7,4.65,5.79,7,9.84,9.4a15.72,15.72,0,0,1,4.75,3.73,9.62,9.62,0,0,1,1.9,5.8c0,3.22,5,3.23,5,0,0-5.35-2.86-9.75-7.21-12.66-1.89-1.27-3.94-2.26-5.82-3.54a9.45,9.45,0,0,1-3.64-4.06,2.56,2.56,0,0,0-3.07-1.74,2.52,2.52,0,0,0-1.75,3.07Z" transform="translate(-203.39 -130.98)"/><path class="cls-1" d="M295.77,387a9.44,9.44,0,0,1-3.64,4.06c-1.87,1.28-3.92,2.27-5.81,3.54-4.36,2.91-7.21,7.31-7.22,12.66,0,3.22,5,3.23,5,0a9.57,9.57,0,0,1,1.82-5.67,15.27,15.27,0,0,1,4.83-3.86c4.05-2.38,8.14-4.75,9.84-9.4a2.52,2.52,0,0,0-1.74-3.07,2.56,2.56,0,0,0-3.08,1.74Z" transform="translate(-203.39 -130.98)"/><path class="cls-1" d="M265.42,392.9c1.22.8,2.44,1.61,3.59,2.49l-.5-.39a22,22,0,0,1,2.24,2,12.41,12.41,0,0,0,2.49,2.31,2.5,2.5,0,1,0,2.53-4.31,3.78,3.78,0,0,1-.33-.22l.51.4a18,18,0,0,1-1.66-1.72,22.87,22.87,0,0,0-1.87-1.68c-1.44-1.14-2.94-2.17-4.47-3.18a2.52,2.52,0,0,0-3.42.9,2.56,2.56,0,0,0,.89,3.42Z" transform="translate(-203.39 -130.98)"/><path class="cls-1" d="M287,391l-.72.57.5-.39a10.88,10.88,0,0,1-2.34,1.45l.6-.25a5.93,5.93,0,0,1-1.37.38l.66-.09-.15,0a2,2,0,0,0-1,.21,2,2,0,0,0-.81.52,2.51,2.51,0,0,0,0,3.54,2.44,2.44,0,0,0,1.77.73,8.29,8.29,0,0,0,1.91-.38,10.75,10.75,0,0,0,1.76-.81,22.34,22.34,0,0,0,2.69-2,2.5,2.5,0,0,0-1.77-4.26l-.67.09a2.41,2.41,0,0,0-1.1.64Z" transform="translate(-203.39 -130.98)"/><path class="cls-1" d="M215.42,256.72a165.71,165.71,0,0,1,48.05-4.53,168,168,0,0,1,24.07,3.06,44.9,44.9,0,0,0,12.39,1.05c3.87-.29,7.69-.6,11.58-.54,8.47.11,17.3.85,25.31-2.5a2.6,2.6,0,0,0,1.75-3.08c-.33-1.17-1.83-2.27-3.08-1.74-7,2.93-14.56,2.52-22,2.35a101.77,101.77,0,0,0-11.45.33,41.62,41.62,0,0,1-12-.46,180.38,180.38,0,0,0-48.63-3.17,173.06,173.06,0,0,0-27.34,4.41c-3.12.76-1.8,5.59,1.33,4.82Z" transform="translate(-203.39 -130.98)"/><circle class="cls-2" cx="39.98" cy="212.27" r="23.61"/><circle class="cls-3" cx="39.98" cy="212.27" r="22.36"/><line class="cls-4" x1="39.34" y1="213.53" x2="23.18" y2="225.27"/><line class="cls-4" x1="39.31" y1="213.68" x2="39.88" y2="233.28"/><line class="cls-4" x1="23.61" y1="197.15" x2="39.37" y2="213.41"/><line class="cls-4" x1="43.7" y1="190.92" x2="39.31" y2="213.68"/><line class="cls-4" x1="56.25" y1="197.15" x2="39.37" y2="213.41"/><line class="cls-4" x1="39.34" y1="213.53" x2="19.17" y2="212.39"/><line class="cls-4" x1="56.07" y1="228.19" x2="39.31" y2="213.68"/><line class="cls-4" x1="60.79" y1="208.85" x2="39.34" y2="213.53"/></svg>