<svg xmlns="http://www.w3.org/2000/svg" viewBox="0 0 103.21 408.48"><defs><style>.cls-1{fill:#231f20;}</style></defs><g id="Layer_1" data-name="Layer 1"><path class="cls-1" d="M346.22,283.81a318.86,318.86,0,0,0-1.51,124.1,174.74,174.74,0,0,0,9.44,33.92c4.92,12.14,11.71,23.54,21.19,32.67,2.32,2.24,5.86-1.29,3.54-3.53-16.53-15.92-24.15-38.45-28.58-60.43a314,314,0,0,1,.74-125.4,2.55,2.55,0,0,0-1.75-3.07,2.52,2.52,0,0,0-3.07,1.74Z" transform="translate(-339.35 -238.4)"/><path class="cls-1" d="M355.23,267.27a27.87,27.87,0,0,0-9.36,19.13,2.52,2.52,0,0,0,2.5,2.5,2.55,2.55,0,0,0,2.5-2.5,23.85,23.85,0,0,1,2.29-8.41,22.09,22.09,0,0,1,5.61-7.18,2.5,2.5,0,1,0-3.54-3.54Z" transform="translate(-339.35 -238.4)"/><path class="cls-1" d="M430.86,284.14a314.81,314.81,0,0,1,6.26,81.07,309.13,309.13,0,0,1-4.75,40.37,177.73,177.73,0,0,1-9.07,33c-4.62,11.67-11.2,22.65-20.28,31.4-2.32,2.24,1.22,5.77,3.54,3.53,17-16.4,25.17-39.56,29.78-62.23A315.39,315.39,0,0,0,442,329.18a322,322,0,0,0-6.27-46.37,2.52,2.52,0,0,0-3.07-1.74,2.55,2.55,0,0,0-1.75,3.07Z" transform="translate(-339.35 -238.4)"/><path class="cls-1" d="M423.28,269.74a22.23,22.23,0,0,1,5.49,7.28,15.62,15.62,0,0,1,.77,1.81c.26.74.49,1.49.69,2.24s.36,1.53.49,2.3a19.83,19.83,0,0,1,.2,2.09,2.56,2.56,0,0,0,2.5,2.5,2.52,2.52,0,0,0,2.5-2.5,27.93,27.93,0,0,0-9.1-19.25,2.55,2.55,0,0,0-3.54,0,2.52,2.52,0,0,0,0,3.53Z" transform="translate(-339.35 -238.4)"/><path class="cls-1" d="M357.26,270.35h67.07c3.21,0,3.22-5,0-5H357.26c-3.22,0-3.23,5,0,5Z" transform="translate(-339.35 -238.4)"/><path class="cls-1" d="M415.9,289.79a8.08,8.08,0,0,0-2.9,0,3.6,3.6,0,0,0-2.06,1.36,2.92,2.92,0,0,0,1.28,4.12,4.19,4.19,0,0,0,3.95-.06,3.5,3.5,0,0,0,1.74-3.41,4,4,0,0,0-2.71-3.48.63.63,0,0,0-.33,1.21,2.65,2.65,0,0,1,1,4.41,3.32,3.32,0,0,1-.58.33,4,4,0,0,1-.64.18,3,3,0,0,1-1.38-.1,2.35,2.35,0,0,1-1.09-.72,1.52,1.52,0,0,1-.33-1.5,2.12,2.12,0,0,1,1.41-1.11,6.86,6.86,0,0,1,2.67,0,.63.63,0,1,0,0-1.25Z" transform="translate(-339.35 -238.4)"/><path class="cls-1" d="M395.42,281.59c-1.2-.47-2.38.65-2.58,1.78a2.07,2.07,0,0,0,.51,1.8,2.56,2.56,0,0,0,1.73.75,3.27,3.27,0,0,0,3.15-2,5.36,5.36,0,0,0,.48-2.16,5,5,0,0,0-.29-2,1.87,1.87,0,0,0-1.79-1.31,1.47,1.47,0,0,0-1.47,1.39.63.63,0,0,0,1.25,0c0-.18,0,.06,0,0v0c0,.07,0,.07,0,0s-.11.1,0,0,0,0,0,0,.16-.08.08-.05.11,0,.1,0,.12,0,0,0h.19c-.12,0,0,0,0,0s-.11-.08,0,0a.42.42,0,0,1,.15.12,1.43,1.43,0,0,1,.27.52,4.82,4.82,0,0,1-.13,2.88,2.65,2.65,0,0,1-.74,1,2.27,2.27,0,0,1-.93.38,1.61,1.61,0,0,1-1-.15,1.05,1.05,0,0,1-.33-.28s-.12-.23-.09-.15l0-.11c-.05-.13,0,.06,0-.07a.76.76,0,0,1,0-.15.28.28,0,0,1,0-.09c0,.06,0,.06,0,0a2,2,0,0,1,.09-.33c0,.09.08-.14.1-.18a.61.61,0,0,1,.07-.1c.08-.11,0,0,.05-.06a.8.8,0,0,1,.13-.13c.09-.08-.06,0,.05,0l.1-.06c.14-.08-.1,0,.06,0l.11,0c-.14,0,0,0,.05,0s-.06,0,0,0l.2.07a.63.63,0,0,0,.33-1.21Z" transform="translate(-339.35 -238.4)"/><path class="cls-1" d="M377.13,281.12a2.41,2.41,0,0,0,.47,2.87,2.38,2.38,0,0,0,2.88.49,3,3,0,0,0,1.44-2.44,2.82,2.82,0,0,0-1.41-2.57,3.6,3.6,0,0,0-3.39-.13.63.63,0,0,0,.63,1.08s.19-.08.06,0l.1,0,.27-.07s.29,0,.16,0l.33,0,.28,0c.12,0,0,0,0,0l.16,0a3.24,3.24,0,0,1,.53.16c-.12-.05.11.05.15.08l.23.14c.14.09-.09-.08,0,0l.09.07.22.24c-.07-.08,0,0,0,0a1.1,1.1,0,0,1,.09.14,1.83,1.83,0,0,1,.13.24c-.06-.14,0,.1,0,.14a.44.44,0,0,0,0,.1s0,.06,0,.1,0-.09,0,0a4,4,0,0,1,0,.49c0-.16,0,.09,0,.14a2.46,2.46,0,0,1-.09.29c-.05.16,0-.07,0,0l-.06.12a2.53,2.53,0,0,1-.13.22l-.06.08c.08-.12,0,0,0,0l-.19.19s-.12.09,0,0l-.08.05-.22.13c-.14.07.12,0,0,0l-.09,0-.15,0c-.13,0,.1,0-.05,0s-.3,0-.14,0l-.25-.06-.1,0c.14.05,0,0,0,0l-.24-.15c-.08-.06.1.1,0,0l-.12-.11-.1-.12s-.11-.15,0,0a2.26,2.26,0,0,1-.16-.26.93.93,0,0,1-.05-.1c.07.13,0,0,0-.06a2.68,2.68,0,0,1-.07-.27c0,.15,0,0,0,0a.75.75,0,0,1,0-.15c0-.15,0,.08,0,0s0-.12.05-.18l0-.09c-.06.14,0-.06,0-.08a.63.63,0,0,0-.22-.86.64.64,0,0,0-.86.22Z" transform="translate(-339.35 -238.4)"/><path class="cls-1" d="M386.7,259.38a3.12,3.12,0,0,0,1.91,4.34c.45.13,1.17.22,1.5-.17a2.53,2.53,0,0,0,.58-1.11,3.31,3.31,0,0,0-.4-2.4A2.87,2.87,0,0,0,388,258.6a.63.63,0,0,0,0,1.25s.14,0,.18,0h0c.1,0,.19.06.29.09-.17-.06,0,0,0,0l.11.06.14.1c.1.07-.09-.09,0,0l.22.21.11.13c.08.09-.07-.1,0,0l.16.26a.61.61,0,0,1,.07.14s.08.19,0,0a3.86,3.86,0,0,1,.17.58c0,.15,0-.14,0,0s0,.12,0,.17,0,.2,0,.3,0-.14,0,0l0,.16s0,.08,0,.12-.09.22,0,.05a2,2,0,0,1-.13.25.83.83,0,0,0-.08.12c.1-.14,0,0-.05,0l.28-.16c.16,0,0,0,0,0h-.25l-.09,0-.27-.07c-.14-.05.12.06,0,0l-.12-.06-.24-.15c-.12-.08.07.07,0,0a.69.69,0,0,1-.13-.11,2.18,2.18,0,0,1-.21-.22s-.11-.14,0,0l-.09-.12c0-.08-.1-.16-.14-.24l-.07-.13c-.06-.13,0,.09,0,0a2.46,2.46,0,0,1-.09-.29l0-.14c0-.16,0,.09,0,0a2.53,2.53,0,0,1,0-.28.57.57,0,0,1,0-.13c0-.16,0,.13,0,0a2.68,2.68,0,0,1,.07-.27l0-.09c0,.07,0,.09,0,0s.05-.1.08-.14a.64.64,0,0,0-.23-.86.62.62,0,0,0-.85.23Z" transform="translate(-339.35 -238.4)"/><path class="cls-1" d="M402.1,257.1c-1.83-.61-4-1.25-5.82-.33a3.64,3.64,0,0,0-2,3.69c.29,1.76,2.36,2.44,3.93,2.25a3.66,3.66,0,0,0,3.35-2.79,3,3,0,0,0-2.58-3.56c-.8-.05-.8,1.2,0,1.25s1.41,1.06,1.38,1.91a2.35,2.35,0,0,1-2.1,1.93c-1,.17-2.49-.09-2.75-1.18a2.41,2.41,0,0,1,1.25-2.35,3.84,3.84,0,0,1,2.34-.31,13.42,13.42,0,0,1,2.65.69c.77.26,1.1-.95.34-1.2Z" transform="translate(-339.35 -238.4)"/><path class="cls-1" d="M409.22,248.53a3.21,3.21,0,0,0,1.24,3.92,3.13,3.13,0,0,0,4-.15,4,4,0,0,0,1-3.84,3.73,3.73,0,0,0-3-2.82,4.89,4.89,0,0,0-4.72,1.7.65.65,0,0,0,0,.89.63.63,0,0,0,.88,0,3.71,3.71,0,0,1,3-1.44,2.66,2.66,0,0,1,2.45,1.54c-.05-.1,0,.09,0,.09l.06.19c0,.12.06.25.08.38a1.2,1.2,0,0,1,0,.28,3.53,3.53,0,0,1,0,.46,3.93,3.93,0,0,1-.12.6,2.15,2.15,0,0,1-.3.66,1.82,1.82,0,0,1-2.29.71,2.55,2.55,0,0,1-1.25-1.15,1.56,1.56,0,0,1-.1-1.39.64.64,0,0,0-.23-.85.63.63,0,0,0-.85.22Z" transform="translate(-339.35 -238.4)"/><path class="cls-1" d="M393.42,241.28a4.82,4.82,0,0,0,.4,2.46,2.89,2.89,0,0,0,1.28,1.19,3.21,3.21,0,0,0,4.64-3.71,3.51,3.51,0,0,0-2.56-2.7,4.19,4.19,0,0,0-4.14,1.31.65.65,0,0,0,0,.88.64.64,0,0,0,.89,0,3,3,0,0,1,2.56-1.05,2.49,2.49,0,0,1,1.25.49c-.09-.07.06.06.06.06l.14.14.12.14s.07.09,0,0a3.28,3.28,0,0,1,.2.31l.08.17c0,.07,0,.08,0,0l.05.12.09.3c0,.06,0,.12,0,.19s0,.2,0,.08a2.3,2.3,0,0,1,0,.37v.13s0,.26,0,.14a2.41,2.41,0,0,1-.18.65c.05-.11,0,.07,0,.07l-.09.16a.86.86,0,0,1-.1.16c.06-.08-.09.09-.1.11a2.09,2.09,0,0,1-.22.2c.1-.08,0,0-.06,0l-.15.09-.15.07c.12,0-.05,0-.06,0l-.34.09H397l-.17,0a1.71,1.71,0,0,1-.32,0,1.87,1.87,0,0,1-.6-.11l-.17-.06c.12,0-.05,0-.06,0a3.79,3.79,0,0,1-.34-.2c-.15-.1.08.07-.05,0s-.12-.1-.17-.16l-.07-.08h0l-.07-.09a3.39,3.39,0,0,1-.32-2,.63.63,0,0,0-1.25,0Z" transform="translate(-339.35 -238.4)"/><path class="cls-1" d="M384.08,244.47c-1.49.35-1.94,2.34-1.19,3.53a1.9,1.9,0,0,0,2,.88,2.39,2.39,0,0,0,1.64-1.53,2.11,2.11,0,0,0-.46-2.37.63.63,0,0,0-.89,0,.64.64,0,0,0,0,.88l.15.14c.08.09-.08-.12,0,0a.35.35,0,0,1,.05.08l.05.09c.05.09,0-.06,0-.06l.07.21c0,.06,0,.15,0,0a.34.34,0,0,1,0,.1.43.43,0,0,1,0,.16v.1c0,.13,0-.16,0,0s0,.15-.05.22l-.06.16c0,.12.07-.13,0,0l-.05.09a1.62,1.62,0,0,1-.1.18l-.06.08c-.06.09.1-.11,0,0l-.14.15-.07.07s-.12.07,0,0l-.13.09-.09.05c-.14.07.11,0,0,0l-.19.06c-.16,0,.15,0,0,0h-.2c.16,0,.1,0,0,0l-.12,0c-.16,0,.11.07,0,0l-.15-.1c-.1,0,.11.11,0,0l-.06-.06s-.08-.11-.12-.13.08.11,0,0l-.05-.08a1.19,1.19,0,0,0-.08-.16c.06.05.05.14,0,.07l0-.09-.06-.21s0-.06,0-.09,0,.17,0,0,0-.1,0-.15a1.21,1.21,0,0,1,0-.19v-.09c0-.11,0,.17,0,0a1.16,1.16,0,0,0,0-.18c0-.06.08-.15.07-.21,0,.1-.06.13,0,0a.2.2,0,0,0,0-.08L384,246l0-.05s0,0,0,.05.09-.11.14-.15l.05,0s-.14.09,0,0a1.14,1.14,0,0,0,.19-.1c-.05.07-.15.05,0,0l.12,0a.63.63,0,0,0-.33-1.21Z" transform="translate(-339.35 -238.4)"/><path class="cls-1" d="M403.6,466.77l-2.2,2-1,.92-.52.45-.26.21c-.07.05-.46.36-.15.13s0,0-.09.06l-.27.2-.57.38c-.39.25-.8.48-1.21.7-.85.44-1.73.82-2.61,1.2a2.49,2.49,0,0,0-1.15,1.49,2.5,2.5,0,0,0,1.75,3.08,2.91,2.91,0,0,0,1.92-.25,23.39,23.39,0,0,0,5.26-2.94c1.63-1.26,3.14-2.68,4.68-4a2.53,2.53,0,0,0,0-3.54,2.56,2.56,0,0,0-3.54,0Z" transform="translate(-339.35 -238.4)"/><rect class="cls-1" x="45.92" y="238.82" width="9.04" height="159.04"/><polygon class="cls-1" points="50.86 388.46 84.8 408.48 16.92 408.48 50.86 388.46"/><path class="cls-1" d="M375.19,471a18.12,18.12,0,0,0,5.94,5.71c1.05.67,2.15,1.27,3.25,1.85a18.63,18.63,0,0,0,4.35,1.76,2.5,2.5,0,1,0,1.33-4.82c-.32-.07-.63-.16-.95-.26l-.41-.14c-.19-.07-.44-.18-.12,0-.57-.25-1.12-.53-1.68-.82-1-.55-2.08-1.12-3.08-1.74-.47-.3-.93-.6-1.38-.93-.06,0-.5-.37-.21-.15s-.08-.07-.13-.1l-.66-.57a13.75,13.75,0,0,1-1.14-1.15,2.17,2.17,0,0,1-.31-.37c.09.16.21.29,0,0s-.36-.53-.53-.8a2.5,2.5,0,1,0-4.31,2.52Z" transform="translate(-339.35 -238.4)"/><path class="cls-1" d="M395.44,472.71a21.76,21.76,0,0,1-3.65,2l.6-.25-1.13.44a2.7,2.7,0,0,0-1.5,1.15,2.59,2.59,0,0,0-.25,1.93,2.56,2.56,0,0,0,1.15,1.49,2.47,2.47,0,0,0,1.93.25A25,25,0,0,0,398,477a2.67,2.67,0,0,0,1.15-1.49,2.52,2.52,0,0,0-1.75-3.08,2.51,2.51,0,0,0-1.93.26Z" transform="translate(-339.35 -238.4)"/><path class="cls-1" d="M376.89,473a12.83,12.83,0,0,0,6.15,7.67l.9.48.47.29c.19.11.21.16,0,0,0,0,.46.44.26.22s.17.29.21.36c-.12-.23,0,0,0,.13s.13.43.2.64l1.68,5.46a2.5,2.5,0,0,0,4.82-1.33c-.54-1.77-1.09-3.55-1.64-5.32a8.94,8.94,0,0,0-1.12-2.64,7.29,7.29,0,0,0-2.14-2c-.58-.35-1.2-.63-1.77-1-.17-.1-.33-.21-.49-.32s-.41-.34-.15-.11a10.44,10.44,0,0,1-.77-.71c-.14-.14-.27-.29-.4-.43s-.41-.52-.25-.3-.22-.33-.21-.32l-.24-.4a9.29,9.29,0,0,1-.54-1c.11.24.05.12,0-.05s-.15-.44-.21-.67a2.5,2.5,0,1,0-4.82,1.33Z" transform="translate(-339.35 -238.4)"/><path class="cls-1" d="M398.71,471.71a14.23,14.23,0,0,1-1.19,1.63c-.14.15-.3.29-.44.44l-.19.17c.15-.1.15-.1,0,0a7.71,7.71,0,0,1-1,.57,11.23,11.23,0,0,0-4.29,3.33,21,21,0,0,0-2.23,4.66,15.55,15.55,0,0,0-.69,2.42c-.07.37-.16.75-.26,1.12-.06.21-.11.24,0,0a4.1,4.1,0,0,1-.36.56,2.5,2.5,0,0,0,.89,3.42,2.57,2.57,0,0,0,3.42-.9c1-1.34,1.05-3.11,1.57-4.66a21.51,21.51,0,0,1,.87-2.15c.15-.32.3-.65.47-1s.19-.34.3-.51.36-.56.2-.33.14-.17.18-.2a3.25,3.25,0,0,1,.42-.41c-.26.21.07,0,.18-.11l.53-.31c.68-.37,1.4-.68,2.06-1.1a13.84,13.84,0,0,0,3.79-4.16,2.52,2.52,0,0,0-.89-3.42,2.55,2.55,0,0,0-3.42.89Z" transform="translate(-339.35 -238.4)"/><path class="cls-1" d="M344.15,313.79c23.09,3.07,46.06-2.62,69.14-2.75a134.88,134.88,0,0,1,19.57,1.3,2.58,2.58,0,0,0,3.07-1.74c.32-1.17-.4-2.89-1.74-3.08a160.48,160.48,0,0,0-35.39-.8c-11.66.93-23.27,2.52-35,2.91a118.74,118.74,0,0,1-19.68-.84,2.52,2.52,0,0,0-2.5,2.5,2.55,2.55,0,0,0,2.5,2.5Z" transform="translate(-339.35 -238.4)"/></g></svg>