<svg id="Layer_1" data-name="Layer 1" xmlns="http://www.w3.org/2000/svg" viewBox="0 0 216.42 408.7">
  <defs>
    <style>
      .cls-1, .cls-2 {
        fill: #fff;
      }

      .cls-1, .cls-2, .cls-3, .cls-4 {
        stroke: #231f20;
        stroke-miterlimit: 10;
      }

      .cls-2, .cls-3 {
        stroke-width: 2px;
      }

      .cls-3, .cls-4 {
        fill: none;
      }
    </style>
  </defs>
  <rect class="cls-1" x="0.5" y="64.2" width="154" height="331"/>
  <rect class="cls-1" x="0.5" y="382.2" width="154" height="26"/>
  <path class="cls-1" d="M189.79,352.59c23.41,2,84.46,6.33,137.38-.25,5.46-.68,11-1.51,16.62-2.5" transform="translate(-189.29 -216.65)"/>
  <path class="cls-1" d="M190.07,349.84c23.3-3,84.12-10,137.28-5.33,5.48.48,11.09,1.1,16.71,1.91" transform="translate(-189.29 -216.65)"/>
  <circle class="cls-2" cx="159.26" cy="57.16" r="56.16"/>
  <circle class="cls-3" cx="159.26" cy="57.16" r="53.19"/>
  <g>
    <line class="cls-4" x1="157.74" y1="60.16" x2="119.3" y2="88.09"/>
    <line class="cls-4" x1="157.68" y1="60.51" x2="159.02" y2="107.16"/>
    <line class="cls-4" x1="120.32" y1="21.21" x2="157.8" y2="59.87"/>
    <line class="cls-4" x1="168.11" y1="6.38" x2="157.68" y2="60.51"/>
    <line class="cls-4" x1="197.97" y1="21.21" x2="157.8" y2="59.87"/>
    <line class="cls-4" x1="157.74" y1="60.16" x2="109.76" y2="57.45"/>
    <line class="cls-4" x1="197.54" y1="95.03" x2="157.68" y2="60.51"/>
    <line class="cls-4" x1="208.76" y1="49.04" x2="157.74" y2="60.16"/>
  </g>
</svg>
