<svg id="Layer_1" data-name="Layer 1" xmlns="http://www.w3.org/2000/svg" viewBox="0 0 307.14 237.52"><defs><style>.cls-1{fill:#231f20;}</style></defs><path class="cls-1" d="M374.11,424.27c3.29,6.09,11.64,6.6,16.07,11.59,3.87,4.37,3.89,11.31-.8,15.09-3,2.43-7.19,3.42-10.9,4.12a2.53,2.53,0,0,0-1.75,3.07,2.57,2.57,0,0,0,3.08,1.75c7.56-1.43,15.91-4.84,17.84-13.14,1.77-7.6-2.6-14.64-9-18.43-2-1.17-4.08-2.06-6.09-3.15-1.58-.86-3.25-1.81-4.12-3.42-1.54-2.83-5.86-.31-4.32,2.52Z" transform="translate(-145.67 -223.62)"/><path class="cls-1" d="M378,408.61c0,.11-.28,1-.08.48-.12.27-.27.54-.41.8-.31.61-.62,1.21-.91,1.83-.61,1.27-1.17,2.57-1.7,3.88-1,2.5-2.17,5.45-1.11,8.13a2.5,2.5,0,1,0,4.82-1.33c0-.1-.28-1-.2-.46a4.5,4.5,0,0,1,0-.82l0-.36c0,.27,0,.25,0-.05s.15-.63.24-.95c.34-1.12.79-2.22,1.23-3.31.11-.28.13-.32,0-.11a3.73,3.73,0,0,1,.16-.35l.36-.82c.25-.55.5-1.08.77-1.62a14.27,14.27,0,0,0,1.57-3.61,2.5,2.5,0,1,0-4.82-1.33Z" transform="translate(-145.67 -223.62)"/><path class="cls-1" d="M145.78,232q12.36,35.1,25.37,70T198,371.15q7.78,19.28,15.88,38.41a2.51,2.51,0,0,0,3.42.9,2.56,2.56,0,0,0,.89-3.42q-14.29-33.8-27.58-68-13.41-34.38-26-69.07-7.12-19.59-14-39.25a2.56,2.56,0,0,0-3.08-1.75,2.53,2.53,0,0,0-1.75,3.08Z" transform="translate(-145.67 -223.62)"/><path class="cls-1" d="M447.69,225.84q-12.6,36-25.89,71.71T394.33,368.5q-8,19.81-16.3,39.51a2.58,2.58,0,0,0,.89,3.42,2.52,2.52,0,0,0,3.43-.89q14.92-35.3,28.8-71t26.91-71.76q7.33-20.25,14.45-40.58a2.5,2.5,0,1,0-4.82-1.33Z" transform="translate(-145.67 -223.62)"/><path class="cls-1" d="M218.42,422.34a2.15,2.15,0,0,1-.89,1.14,24.22,24.22,0,0,1-3.32,1.91c-2,1.07-4.14,2.06-6.15,3.21a17.32,17.32,0,0,0-7.65,7.84,14.8,14.8,0,0,0,3.45,17.27A26.37,26.37,0,0,0,216,459.63c3.13.72,4.47-4.1,1.33-4.82-3.31-.77-6.85-2-9.37-4.16a10.68,10.68,0,0,1-3.87-6.11c0-.11,0-.23-.06-.35-.08-.4,0,.36,0,0s-.05-.56-.06-.84,0-.64,0-.95,0-.32,0-.48c0-.47,0,.1,0-.18a10.83,10.83,0,0,1,.42-1.79,6.59,6.59,0,0,1,.6-1.53c1.55-3.09,4.12-4.72,7.14-6.31,2.14-1.13,4.34-2.17,6.45-3.38s4.1-2.63,4.65-5c.72-3.13-4.1-4.47-4.82-1.33Z" transform="translate(-145.67 -223.62)"/><path class="cls-1" d="M214.26,409.94a14.3,14.3,0,0,0,1.58,3.61c.26.54.52,1.07.77,1.62.1.23.21.46.31.7s.14.31.2.47c-.08-.21-.07-.17,0,.11.44,1.09.89,2.19,1.22,3.31.1.32.16.64.25.95.15.55,0-.23.05.29a5.9,5.9,0,0,1,0,.94c.08-.54-.16.36-.2.46a2.51,2.51,0,0,0,1.74,3.08,2.58,2.58,0,0,0,3.08-1.75c1-2.68-.11-5.63-1.12-8.13-.52-1.31-1.08-2.61-1.69-3.88-.29-.62-.6-1.22-.92-1.83-.13-.26-.29-.53-.4-.8.2.48-.07-.37-.08-.48a2.52,2.52,0,0,0-3.08-1.75,2.58,2.58,0,0,0-1.75,3.08Z" transform="translate(-145.67 -223.62)"/><path class="cls-1" d="M226.91,461.08q27.84.06,55.69.06,27.58,0,55.17-.14,15.76-.09,31.51-.21c3.21,0,3.22-5,0-5q-27.84.22-55.67.3-27.58.07-55.18,0l-31.52-.05c-3.22,0-3.22,5,0,5Z" transform="translate(-145.67 -223.62)"/><path class="cls-1" d="M150.91,233c39.23.22,78.46,1,117.69,1.18,38.92.19,77.87-.1,116.74-2.24,21.68-1.18,43.32-4.3,65.07-3,3.21.19,3.2-4.81,0-5-19.4-1.16-38.72,1.19-58,2.56s-38.82,1.9-58.23,2.29c-39,.79-77.95.38-116.92-.1-22.1-.27-44.21-.57-66.31-.69-3.22,0-3.22,5,0,5Z" transform="translate(-145.67 -223.62)"/><path class="cls-1" d="M221.38,421.7c19.65,5.52,40.45,4.54,60.65,4.54h63.12c10.32,0,21-.3,30.26-5.38,2.82-1.55.3-5.87-2.53-4.32-7.75,4.25-16.73,4.65-25.37,4.7-10.26.05-20.52,0-30.78,0h-31c-10.14,0-20.3.13-30.44-.13-11-.29-22-1.25-32.62-4.23-3.11-.88-4.43,3.95-1.33,4.82Z" transform="translate(-145.67 -223.62)"/><path class="cls-1" d="M377.89,455.69l-7.35.35c-1.16,0-2.32.11-3.48.07a14.35,14.35,0,0,1-1.61-.12c.41.06-.32-.07-.39-.08-.36-.07-.71-.16-1.06-.26a2.52,2.52,0,0,0-3.08,1.74,2.56,2.56,0,0,0,1.75,3.08,23.41,23.41,0,0,0,7.6.58l7.62-.36a2.5,2.5,0,0,0,0-5Z" transform="translate(-145.67 -223.62)"/><path class="cls-1" d="M219.09,460.48a2.93,2.93,0,0,1,1.25,0c-.37-.05-.41-.06-.13,0l.18,0,.7.15a27.32,27.32,0,0,0,2.84.4,22.42,22.42,0,0,0,5.43-.26,2.51,2.51,0,0,0,1.5-1.15,2.55,2.55,0,0,0,.25-1.93,2.49,2.49,0,0,0-1.15-1.49A2.89,2.89,0,0,0,228,456l-.37,0,.21,0-.64.07c-.37,0-.73.05-1.1.06a19,19,0,0,1-2.39-.09,4.87,4.87,0,0,0-.55-.06l.12,0-.18,0c-.42-.07-.83-.16-1.25-.24a8.81,8.81,0,0,0-2.8-.24,2.73,2.73,0,0,0-1.76.73,2.56,2.56,0,0,0-.74,1.77,2.5,2.5,0,0,0,.74,1.77,2.4,2.4,0,0,0,1.76.73Z" transform="translate(-145.67 -223.62)"/><path class="cls-1" d="M195.26,295.26A191.21,191.21,0,0,0,238,281.7c1.46-.66.19-2.81-1.27-2.16a188.2,188.2,0,0,1-42.17,13.31c-1.58.3-.91,2.71.66,2.41Z" transform="translate(-145.67 -223.62)"/><path class="cls-1" d="M237.57,284.33c6.88,8.66,13.71,17.37,20.68,26,1,1.25,2.77-.53,1.76-1.77-7-8.6-13.79-17.31-20.67-26-1-1.26-2.76.52-1.77,1.77Z" transform="translate(-145.67 -223.62)"/><path class="cls-1" d="M258.06,308q-4.5,16.53-7.43,33.41c-.27,1.57,2.14,2.25,2.41.67q2.91-16.87,7.43-33.41a1.25,1.25,0,0,0-2.41-.67Z" transform="translate(-145.67 -223.62)"/><path class="cls-1" d="M194.89,294c-3.49,11.32-.79,23.61-5,34.76-.57,1.51,1.85,2.16,2.41.66,4.21-11.16,1.51-23.44,5-34.75.48-1.55-1.93-2.2-2.41-.67Z" transform="translate(-145.67 -223.62)"/><path class="cls-1" d="M188,331.26c11.66,7.68,18.62,20.69,30.69,27.88a1.25,1.25,0,0,0,1.26-2.16c-12-7.17-19-20.19-30.69-27.88-1.35-.88-2.6,1.28-1.26,2.16Z" transform="translate(-145.67 -223.62)"/><path class="cls-1" d="M219.32,355l17.33-6.42c5.42-2,10.85-4.29,16.62-5.11,1.59-.23.91-2.64-.67-2.41-5.76.82-11.19,3.1-16.62,5.11l-17.33,6.42c-1.5.56-.85,3,.67,2.41Z" transform="translate(-145.67 -223.62)"/><path class="cls-1" d="M226.39,312.45c-2.94,7.34-4,15.52-5.2,23.29-1.15,7.56-1.32,15.7-4.59,22.73-.33.73.74,1.36,1.08.63,3.26-7,3.51-15,4.64-22.54q.92-6.07,2.1-12.11a64.57,64.57,0,0,1,3.18-11.67c.3-.74-.91-1.07-1.21-.33Z" transform="translate(-145.67 -223.62)"/><path class="cls-1" d="M198.82,295.7a261.75,261.75,0,0,0,29.79,18.9c.71.39,1.34-.69.63-1.08a261.75,261.75,0,0,1-29.79-18.9c-.65-.48-1.27.6-.63,1.08Z" transform="translate(-145.67 -223.62)"/><path class="cls-1" d="M224,314.13a24.44,24.44,0,0,0,8.31-.27c3.08-.54,6.15-1.18,9.22-1.78l18.3-3.56c.79-.15.45-1.36-.33-1.21l-17.33,3.38-8.52,1.66a26.37,26.37,0,0,1-9.32.57c-.79-.13-1.12,1.07-.33,1.21Z" transform="translate(-145.67 -223.62)"/><path class="cls-1" d="M221.56,357.67a179.46,179.46,0,0,0,40.84-10.09c1.49-.56.85-3-.66-2.41a176.58,176.58,0,0,1-40.18,10c-1.57.2-1.59,2.71,0,2.5Z" transform="translate(-145.67 -223.62)"/><path class="cls-1" d="M261.82,349.7c6,8.46,11.92,17,18,25.37.93,1.29,3.1,0,2.15-1.26-6.06-8.41-12-16.91-18-25.37-.92-1.31-3.09-.06-2.16,1.26Z" transform="translate(-145.67 -223.62)"/><path class="cls-1" d="M279.85,373.12q-5.1,15.11-8.75,30.66c-.37,1.57,2,2.23,2.41.67q3.63-15.54,8.75-30.67c.51-1.53-1.9-2.18-2.41-.66Z" transform="translate(-145.67 -223.62)"/><path class="cls-1" d="M221.43,356.41c-3.84,10.22-1.94,21.74-6.43,31.76-.65,1.46,1.5,2.73,2.16,1.26,4.6-10.27,2.76-21.92,6.68-32.36.57-1.51-1.85-2.16-2.41-.66Z" transform="translate(-145.67 -223.62)"/><path class="cls-1" d="M213.05,390.76c10.5,7.82,16.34,20.34,27.25,27.73,1.34.9,2.59-1.26,1.27-2.16-10.88-7.36-16.76-19.9-27.26-27.73-1.29-1-2.53,1.21-1.26,2.16Z" transform="translate(-145.67 -223.62)"/><path class="cls-1" d="M241.2,414.66l16.18-4.86c5.21-1.56,10.47-3.44,15.92-3.87,1.59-.13,1.61-2.63,0-2.5-5.54.44-10.82,2.23-16.11,3.82l-16.65,5a1.25,1.25,0,0,0,.66,2.41Z" transform="translate(-145.67 -223.62)"/><path class="cls-1" d="M250.06,375.24c-3.16,6.69-4.63,14.23-6.17,21.43-1.49,7-2.1,14.59-5.55,21-.38.7.7,1.34,1.08.63,3.37-6.24,4-13.5,5.48-20.33q1.15-5.56,2.58-11.08a60.68,60.68,0,0,1,3.66-11c.34-.72-.74-1.36-1.08-.63Z" transform="translate(-145.67 -223.62)"/><path class="cls-1" d="M225,358.13a247.93,247.93,0,0,0,27,19.42c.68.43,1.31-.65.63-1.08a245.49,245.49,0,0,1-26.77-19.22c-.62-.51-1.5.37-.88.88Z" transform="translate(-145.67 -223.62)"/><path class="cls-1" d="M247.7,376.84c5.3,1.22,11-.19,16.31-.88l17.42-2.26c.78-.11.79-1.36,0-1.25l-16.93,2.2c-2.75.36-5.49.73-8.24,1.07a23.46,23.46,0,0,1-8.23-.09c-.78-.18-1.11,1-.33,1.21Z" transform="translate(-145.67 -223.62)"/><path class="cls-1" d="M318.29,380.5a179.86,179.86,0,0,0,30.29-29.17c1-1.24-.75-3-1.77-1.77A176.8,176.8,0,0,1,317,378.34c-1.26,1,0,3.13,1.27,2.16Z" transform="translate(-145.67 -223.62)"/><path class="cls-1" d="M349.13,353.44c9.42,4.32,18.81,8.72,28.26,13,1.46.65,2.73-1.5,1.26-2.16-9.45-4.24-18.84-8.63-28.26-13-1.45-.67-2.72,1.48-1.26,2.16Z" transform="translate(-145.67 -223.62)"/><path class="cls-1" d="M376.48,364.71c2.1,10.42,4.68,20.75,7.77,30.92.47,1.54,2.88.89,2.41-.66Q382,379.7,378.89,364c-.32-1.57-2.73-.91-2.41.67Z" transform="translate(-145.67 -223.62)"/><path class="cls-1" d="M317.54,379.49c1.79,10.77,9.2,19.78,10.33,30.7.17,1.59,2.67,1.6,2.5,0-1.16-11.19-8.59-20.36-10.42-31.37-.26-1.58-2.67-.91-2.41.67Z" transform="translate(-145.67 -223.62)"/><path class="cls-1" d="M327.49,413.4c13,1.53,24.32,9.43,37.47,10.36,1.6.12,1.6-2.38,0-2.5-13.1-.93-24.47-8.83-37.47-10.36-1.6-.18-1.59,2.32,0,2.5Z" transform="translate(-145.67 -223.62)"/><path class="cls-1" d="M363.81,420l11.86-12.61c3.63-3.86,7.17-8,11.57-11,1.31-.9.06-3.07-1.27-2.16-4.46,3.08-8.06,7.15-11.75,11.08L362,418.24c-1.1,1.17.66,2.94,1.77,1.76Z" transform="translate(-145.67 -223.62)"/><path class="cls-1" d="M351.74,381.45c.61,7.21,3,14.32,5.25,21.18s5.62,14,5.84,21.39c0,.8,1.28.81,1.25,0-.21-7.24-3.37-14-5.59-20.8q-1.73-5.3-3.23-10.66A60.34,60.34,0,0,1,353,381.45c-.06-.8-1.31-.81-1.25,0Z" transform="translate(-145.67 -223.62)"/><path class="cls-1" d="M321.48,379.18a248.49,248.49,0,0,0,33.12,3.28c.8,0,.8-1.22,0-1.25A245.19,245.19,0,0,1,321.81,378c-.78-.13-1.12,1.07-.33,1.21Z" transform="translate(-145.67 -223.62)"/><path class="cls-1" d="M350.51,384c5.05-1.54,9.18-5.47,13.28-8.62l14.34-11c.63-.48,0-1.57-.63-1.08L363.56,374c-2.21,1.69-4.4,3.41-6.63,5.07a22.55,22.55,0,0,1-6.75,3.73c-.77.23-.44,1.44.33,1.2Z" transform="translate(-145.67 -223.62)"/><path class="cls-1" d="M284.65,375.45a138.8,138.8,0,0,0,32,4.65c1.61,0,1.61-2.45,0-2.5A135.72,135.72,0,0,1,285.32,373a1.25,1.25,0,0,0-.67,2.41Z" transform="translate(-145.67 -223.62)"/><path class="cls-1" d="M315.36,381.35c2.05,7.77,4,15.55,6.15,23.3a1.25,1.25,0,0,0,2.41-.66c-2.11-7.75-4.1-15.54-6.15-23.31a1.25,1.25,0,0,0-2.41.67Z" transform="translate(-145.67 -223.62)"/><path class="cls-1" d="M322.22,402.78q-7.77,9.44-14.6,19.57c-.9,1.34,1.27,2.6,2.16,1.27q6.63-9.89,14.21-19.07c1-1.23-.74-3-1.77-1.77Z" transform="translate(-145.67 -223.62)"/><path class="cls-1" d="M284.79,373.9c-5.54,6.26-7.25,15-13.21,21a1.25,1.25,0,0,0,1.77,1.77c6-5.95,7.66-14.69,13.21-20.95,1.06-1.2-.7-3-1.77-1.77Z" transform="translate(-145.67 -223.62)"/><path class="cls-1" d="M269.44,396.3c5.42,8.61,6.35,19.27,12.17,27.68.91,1.32,3.08.07,2.16-1.26C278,414.32,277,403.65,271.59,395c-.85-1.36-3-.11-2.15,1.26Z" transform="translate(-145.67 -223.62)"/><path class="cls-1" d="M283.7,421.76,296.59,423c4.14.4,8.35.63,12.34,1.88,1.54.49,2.2-1.92.67-2.41-4.05-1.27-8.32-1.52-12.52-1.92l-13.38-1.29c-1.61-.15-1.59,2.35,0,2.5Z" transform="translate(-145.67 -223.62)"/><path class="cls-1" d="M300.28,395.88c-4.06,3.88-7.14,8.88-10.16,13.58-2.91,4.53-5.34,9.69-9.49,13.25-.61.52.28,1.4.88.88,4-3.43,6.4-8.32,9.18-12.7,3.1-4.88,6.27-10.1,10.47-14.13.58-.56-.3-1.44-.88-.88Z" transform="translate(-145.67 -223.62)"/><path class="cls-1" d="M286.89,376.59A198.43,198.43,0,0,0,301,398.18c.47.64,1.56,0,1.08-.63A198.43,198.43,0,0,1,288,376a.63.63,0,0,0-1.08.63Z" transform="translate(-145.67 -223.62)"/><path class="cls-1" d="M298.27,396.55c3.34,2.31,7.64,3,11.49,4l13.55,3.57a.63.63,0,0,0,.33-1.21l-13.07-3.44c-3.88-1-8.3-1.67-11.67-4-.66-.45-1.29.63-.63,1.08Z" transform="translate(-145.67 -223.62)"/><path class="cls-1" d="M377.26,289.25a177.85,177.85,0,0,0,33.55,25.5,1.25,1.25,0,0,0,1.26-2.16A175.16,175.16,0,0,1,379,287.48c-1.15-1.12-2.92.65-1.76,1.77Z" transform="translate(-145.67 -223.62)"/><path class="cls-1" d="M408.72,315.77c-2.63,10.31-5.33,20.61-7.87,30.94a1.25,1.25,0,0,0,2.41.67c2.54-10.33,5.24-20.63,7.87-30.94a1.25,1.25,0,0,0-2.41-.67Z" transform="translate(-145.67 -223.62)"/><path class="cls-1" d="M402.59,345.33q-14.88,6-29.13,13.49c-1.43.75-.16,2.91,1.26,2.16q13.93-7.32,28.53-13.24c1.47-.6.83-3-.66-2.41Z" transform="translate(-145.67 -223.62)"/><path class="cls-1" d="M378.25,288.22c-10.36,3.78-17.87,12.89-28.5,16a1.25,1.25,0,0,0,.67,2.41c10.68-3.15,18.13-12.24,28.5-16,1.49-.55.85-3-.67-2.41Z" transform="translate(-145.67 -223.62)"/><path class="cls-1" d="M346.65,304.13c.7,13.44-5.08,26.36-3.78,39.82.15,1.59,2.65,1.6,2.5,0-1.3-13.45,4.48-26.37,3.78-39.82-.09-1.6-2.59-1.61-2.5,0Z" transform="translate(-145.67 -223.62)"/><path class="cls-1" d="M346.45,342.37l14.35,9.82c4.38,3,8.94,5.87,12.61,9.76,1.1,1.17,2.87-.6,1.77-1.77-3.7-3.93-8.3-6.84-12.72-9.87l-14.75-10.1c-1.33-.91-2.58,1.25-1.26,2.16Z" transform="translate(-145.67 -223.62)"/><path class="cls-1" d="M381.85,323.3c-7.1,1.94-13.76,5.79-20.17,9.32-6.25,3.44-12.37,8-19.45,9.47-.79.17-.45,1.38.33,1.21,6.9-1.47,12.83-5.76,18.9-9.13q5-2.76,10.05-5.29a58.92,58.92,0,0,1,10.67-4.37.63.63,0,0,0-.33-1.21Z" transform="translate(-145.67 -223.62)"/><path class="cls-1" d="M379,292.26a264.55,264.55,0,0,0,2.37,34c.11.78,1.36.79,1.25,0a264.55,264.55,0,0,1-2.37-34,.63.63,0,0,0-1.25,0Z" transform="translate(-145.67 -223.62)"/><path class="cls-1" d="M379.23,322.52c2.32,4.79,6.88,8.31,10.65,11.92L403,347c.58.56,1.46-.33.88-.89l-12.77-12.25c-2-1.91-4-3.81-6-5.75a23,23,0,0,1-4.81-6.24c-.35-.72-1.43-.09-1.08.63Z" transform="translate(-145.67 -223.62)"/><path class="cls-1" d="M303.19,288.9a206.34,206.34,0,0,0,39.06,28c1.41.77,2.67-1.39,1.26-2.16A203.14,203.14,0,0,1,305,287.13c-1.19-1.08-3,.69-1.77,1.77Z" transform="translate(-145.67 -223.62)"/><path class="cls-1" d="M339.91,318.19c-3.07,11.33-6.21,22.65-9.17,34a1.25,1.25,0,0,0,2.41.66c3-11.36,6.1-22.68,9.17-34a1.25,1.25,0,0,0-2.41-.66Z" transform="translate(-145.67 -223.62)"/><path class="cls-1" d="M332.62,350.77c-11.52,4.41-22.85,9.34-33.9,14.82-1.44.71-.18,2.87,1.26,2.16q16.29-8.08,33.3-14.57c1.49-.57.84-3-.66-2.41Z" transform="translate(-145.67 -223.62)"/><path class="cls-1" d="M304.26,288c-12,4.11-20.94,14.21-33.21,17.61a1.25,1.25,0,0,0,.66,2.41c12.32-3.41,21.22-13.5,33.21-17.61,1.51-.52.86-2.94-.66-2.41Z" transform="translate(-145.67 -223.62)"/><path class="cls-1" d="M267.58,305.36c.83,14.8-5.93,28.95-4.41,43.78.16,1.58,2.67,1.6,2.5,0-1.52-14.82,5.24-29,4.41-43.78-.09-1.6-2.59-1.61-2.5,0Z" transform="translate(-145.67 -223.62)"/><path class="cls-1" d="M267.25,347.28,283.78,358c5.15,3.33,10.56,6.49,14.92,10.86a1.25,1.25,0,0,0,1.77-1.76c-4.4-4.42-9.82-7.63-15-11l-16.94-10.94c-1.36-.88-2.61,1.28-1.26,2.15Z" transform="translate(-145.67 -223.62)"/><path class="cls-1" d="M308.42,326.49A67.82,67.82,0,0,0,297,330.8q-6,2.81-12,5.88c-7.35,3.81-14.55,8.83-22.78,10.47-.79.16-.45,1.37.33,1.21,8-1.61,15.06-6.41,22.22-10.15q5.82-3,11.77-5.83a69.23,69.23,0,0,1,12.19-4.68.63.63,0,0,0-.34-1.21Z" transform="translate(-145.67 -223.62)"/><path class="cls-1" d="M305.19,292.3A274.13,274.13,0,0,0,308,329.83c.11.79,1.31.45,1.2-.34a272.19,272.19,0,0,1-2.74-37.19.63.63,0,0,0-1.25,0Z" transform="translate(-145.67 -223.62)"/><path class="cls-1" d="M305.43,325.54a25.11,25.11,0,0,0,5.31,6.65c2.34,2.22,4.77,4.35,7.17,6.51l15.2,13.76c.6.54,1.49-.34.89-.88l-14.84-13.43c-2.36-2.13-4.75-4.24-7.08-6.41a25.47,25.47,0,0,1-5.57-6.83c-.36-.72-1.44-.08-1.08.63Z" transform="translate(-145.67 -223.62)"/><path class="cls-1" d="M163.15,270.39c7.44,3.61,15.68,4.66,23.85,5.12,9.12.5,18.27.57,27.4.28s18.22-1,27.28-2,18.3-2.67,27.52-3.39c17.67-1.38,35.37.44,52.94,2.15s35.05,3.31,52.55,1.55c17.34-1.74,34.49-8.19,52.07-6.56a50.87,50.87,0,0,1,6.61,1.08c1.57.37,2.24-2,.67-2.41-17.2-4-34.42,1.57-51.34,4.33-17.42,2.85-35.13,1.85-52.63.26S295,267,277.37,267.47a242.87,242.87,0,0,0-26.77,2.66c-9.11,1.26-18.26,2.23-27.44,2.76s-18.23.69-27.35.46c-8.48-.21-17.23-.39-25.43-2.82a40,40,0,0,1-6-2.3c-1.44-.7-2.71,1.45-1.26,2.16Z" transform="translate(-145.67 -223.62)"/></svg>