<svg id="Layer_1" data-name="Layer 1" xmlns="http://www.w3.org/2000/svg" viewBox="0 0 337.33 398.58">
  <defs>
    <style>
      .cls-1, .cls-4 {
        fill: none;
      }

      .cls-1, .cls-3 {
        stroke: #231f20;
        stroke-miterlimit: 10;
      }

      .cls-2 {
        fill: #231f20;
      }

      .cls-3 {
        fill: #fff;
      }
    </style>
  </defs>
  <path class="cls-1" d="M154.67,335.64c65.21-8.39,159.92-15.24,262.08-2.75,13.29,1.62,25.92,3.48,37.91,5.5" transform="translate(-128.84 -221.71)"/>
  <path class="cls-1" d="M454.66,607.61H155.08v-341H454.66Z" transform="translate(-128.84 -221.71)"/>
  <g>
    <rect class="cls-2" x="26.24" y="363.3" width="299.58" height="34.78" rx="6"/>
    <rect class="cls-1" x="26.24" y="363.3" width="299.58" height="34.78" rx="6"/>
  </g>
  <rect class="cls-3" x="234.83" y="314.24" width="108.75" height="108.75" transform="translate(-237.17 -101.05) rotate(-19.93)"/>
  <line class="cls-4" x1="337.33" x2="314.31"/>
  <line class="cls-4" x1="14.74"/>
  <rect class="cls-3" x="319.5" y="425.19" width="117.17" height="117.17" transform="translate(30.08 -311.48) rotate(17.1)"/>
  <path class="cls-1" d="M154.67,343.07c65.21,8.39,159.92,15.24,262.08,2.75,13.29-1.62,25.92-3.48,37.91-5.5" transform="translate(-128.84 -221.71)"/>
  <rect class="cls-3" x="175.36" y="450.4" width="118.19" height="118.19" transform="translate(-232.85 -159.42) rotate(-12.41)"/>
</svg>
